<svg width="2250" height="201" viewBox="0 0 2250 201" fill="none" xmlns="http://www.w3.org/2000/svg">
<g filter="url(#filter0_ii)">
<path d="M360.3 103.363V103.474C360.305 111.218 358.476 118.849 354.965 125.729C351.456 132.609 346.367 138.536 340.128 143.014L270.196 192.971C263.481 197.812 255.44 200.408 247.197 200.397C246.517 200.397 245.847 200.397 245.176 200.345C236.959 199.924 229.075 196.93 222.611 191.776C216.148 186.622 211.426 179.563 209.095 171.575C206.765 163.587 206.943 155.063 209.604 147.181C212.265 139.299 217.279 132.449 223.951 127.576C224.291 127.318 224.639 127.069 224.996 126.828L236.033 118.955L258.819 102.683L242.29 90.7013L228.17 80.4898L227.636 80.103C224.784 77.9453 222.896 74.7291 222.386 71.1618C221.877 67.5945 222.788 63.9684 224.919 61.0812C227.05 58.194 230.227 56.2822 233.75 55.7664C237.274 55.2505 240.856 56.1729 243.707 58.3306L262.903 72.2467L282.014 86.0941L285.02 88.2688L290.326 92.1109L291.523 92.9705L291.625 93.0564C293.016 94.2227 294.137 95.6856 294.906 97.3408C295.675 98.996 296.074 100.803 296.074 102.632C296.074 104.461 295.675 106.268 294.906 107.923C294.137 109.578 293.016 111.041 291.625 112.207L290.08 113.308L281.743 119.316L270.638 127.241L270.315 127.473L240.6 148.695C239.939 149.081 239.314 149.527 238.732 150.027C236.207 152.179 234.575 155.213 234.159 158.528C233.744 161.843 234.576 165.194 236.49 167.916C238.405 170.637 241.261 172.529 244.491 173.215C247.72 173.902 251.088 173.332 253.92 171.619C254.521 171.263 255.089 170.855 255.619 170.399L285.41 149.125L289.596 146.134L325.126 120.751L325.262 120.657C325.644 120.407 326.017 120.141 326.374 119.866C328.78 118.084 330.76 115.779 332.169 113.119C333.577 110.46 334.379 107.514 334.515 104.5C334.65 101.485 334.116 98.4778 332.95 95.7C331.785 92.9223 330.019 90.4445 327.783 88.4493C326.619 87.3858 325.34 86.4575 323.972 85.6815L292.185 62.6456L289.638 60.789L252.876 34.1429C252.409 33.7819 251.925 33.4295 251.433 33.0943L251.374 33.0513C247.356 30.3136 242.772 28.5422 237.974 27.8728C233.176 27.2033 228.29 27.6533 223.69 29.1886C219.09 30.7238 214.898 33.3035 211.433 36.7306C207.969 40.1576 205.325 44.3412 203.703 48.9616C203.208 50.3636 202.814 51.7999 202.522 53.2593L202.259 54.7549C202.259 54.7549 202.259 54.7549 202.259 54.8065L195.34 93.8558L193.642 102.933L184.762 150.535L184.167 153.698C183.488 156.905 182.539 160.048 181.332 163.093C176.982 174.097 169.474 183.529 159.779 190.172C150.083 196.815 138.643 200.365 126.937 200.363C125.077 200.363 123.235 200.277 121.426 200.096C111.86 199.206 102.661 195.925 94.6575 190.547L91.2191 188.054L21.8051 137.796L18.9356 135.707C13.1472 131.193 8.45782 125.396 5.22735 118.761C1.99688 112.125 0.311306 104.829 0.300058 97.4315V97.3198C0.295246 89.5765 2.1245 81.945 5.6344 75.0653C9.1443 68.1856 14.2325 62.2583 20.4723 57.7805L90.404 7.82352C97.1189 2.98209 105.159 0.385626 113.403 0.39701C114.082 0.39701 114.753 0.39701 115.424 0.448583C123.641 0.869975 131.526 3.8644 137.988 9.01816C144.452 14.1719 149.174 21.2306 151.504 29.2191C153.834 37.2075 153.657 45.7314 150.996 53.6131C148.335 61.4948 143.321 68.3452 136.649 73.218C136.309 73.4759 135.962 73.7252 135.605 73.9658L124.567 81.8393L101.789 98.1106L118.319 110.093L132.429 120.304C132.605 120.425 132.783 120.554 132.964 120.691C134.376 121.759 135.566 123.099 136.467 124.633C137.368 126.167 137.962 127.866 138.214 129.632C138.466 131.399 138.373 133.198 137.938 134.928C137.503 136.657 136.736 138.283 135.681 139.713C134.626 141.142 133.303 142.348 131.787 143.26C130.272 144.171 128.594 144.772 126.85 145.028C125.104 145.283 123.328 145.188 121.619 144.748C119.911 144.308 118.305 143.532 116.893 142.463L97.697 128.547L78.586 114.7L75.5806 112.568L70.2743 108.726L69.0773 107.867L68.9754 107.781C67.5835 106.614 66.4629 105.151 65.6938 103.496C64.9246 101.841 64.5259 100.034 64.5259 98.2051C64.5259 96.3759 64.9246 94.5693 65.6938 92.9141C66.4629 91.2589 67.5835 89.796 68.9754 88.6298L70.5206 87.5295L78.8323 81.4783L89.9371 73.5533L90.2597 73.3212L119.974 52.0989C120.636 51.7133 121.261 51.2674 121.842 50.7666C124.313 48.602 125.898 45.5829 126.288 42.2987C126.678 39.0145 125.844 35.7011 123.951 33.0055C122.057 30.3098 119.239 28.4255 116.047 27.7203C112.856 27.0151 109.518 27.5398 106.687 29.1919C106.628 29.2349 106.56 29.2607 106.51 29.3037L106.663 29.1919C106.062 29.5483 105.494 29.9567 104.964 30.4125L105.134 30.2921L104.99 30.4125L75.1985 51.6691L71.0129 54.6604L35.4825 80.0429L35.3467 80.1374C34.9646 80.3867 34.5911 80.6531 34.2344 80.9282C31.8288 82.71 29.8486 85.0156 28.4398 87.675C27.031 90.3344 26.2295 93.2799 26.0943 96.2946C25.959 99.3092 26.4935 102.316 27.6584 105.094C28.8233 107.872 30.5889 110.35 32.8251 112.345L32.9439 112.448L32.7996 112.345C33.1137 112.637 33.4364 112.912 33.776 113.204C34.6632 113.935 35.6121 114.585 36.6117 115.147L36.4842 115.052L36.6371 115.147L68.4235 138.183L70.9705 140.04L107.732 166.686C108.199 167.047 108.683 167.399 109.175 167.734L109.235 167.777C113.563 170.713 118.538 172.526 123.721 173.057C128.904 173.589 134.137 172.822 138.959 170.824C143.78 168.826 148.043 165.658 151.371 161.6C154.699 157.542 156.99 152.718 158.044 147.552L158.307 146.056C158.307 146.056 158.307 146.056 158.307 146.005L164.852 109.087L166.941 97.9129L175.719 50.8182L176.51 46.615C177.181 43.586 178.092 40.6167 179.235 37.7358C183.586 26.7162 191.097 17.2692 200.803 10.6138C210.507 3.95829 221.959 0.399662 233.681 0.39701C235.54 0.39701 237.382 0.482965 239.19 0.66347C248.757 1.5536 257.955 4.83499 265.96 10.2131L269.355 12.7058L338.795 62.998L341.665 65.0867C347.453 69.6011 352.142 75.3984 355.372 82.0335C358.603 88.6686 360.289 95.965 360.3 103.363Z" fill="#0850FD"/>
</g>
<g filter="url(#filter1_ii)">
<path d="M454.616 157.397C485.844 157.397 507.6 134.901 507.6 102.933C507.6 70.373 485.252 47.877 453.136 47.877H411.696V157.397H454.616ZM450.768 70.077C470.6 70.077 482.292 82.213 482.292 102.933C482.292 123.209 471.192 135.197 452.248 135.197H435.672V70.077H450.768ZM555.81 159.321C576.086 159.321 590.738 148.813 593.402 132.385H572.534C570.906 137.713 564.838 140.821 556.254 140.821C546.19 140.821 540.714 136.233 539.382 126.465L593.106 126.169V120.397C593.106 96.273 578.602 81.029 555.366 81.029C533.018 81.029 517.478 97.161 517.478 120.249C517.478 143.041 533.462 159.321 555.81 159.321ZM555.514 99.529C564.69 99.529 570.462 104.561 570.462 112.405H539.678C541.454 103.525 546.486 99.529 555.514 99.529ZM623.861 157.397H646.357L677.289 83.397H653.609L643.693 109.297C639.993 118.917 636.737 128.537 635.849 132.829C635.257 129.425 632.297 120.101 628.597 109.297L619.569 83.397H595.001L623.861 157.397ZM717.251 159.321C737.527 159.321 752.179 148.813 754.843 132.385H733.975C732.347 137.713 726.279 140.821 717.695 140.821C707.631 140.821 702.155 136.233 700.823 126.465L754.547 126.169V120.397C754.547 96.273 740.043 81.029 716.807 81.029C694.459 81.029 678.919 97.161 678.919 120.249C678.919 143.041 694.903 159.321 717.251 159.321ZM716.955 99.529C726.131 99.529 731.903 104.561 731.903 112.405H701.119C702.895 103.525 707.927 99.529 716.955 99.529ZM790.836 157.397V45.805H768.044V157.397H790.836ZM803.939 120.249C803.939 143.633 821.107 159.173 844.787 159.173C868.319 159.173 885.487 143.633 885.487 120.249C885.487 96.865 868.319 81.177 844.787 81.177C821.107 81.177 803.939 96.865 803.939 120.249ZM826.879 120.101C826.879 109.001 834.131 101.601 844.787 101.601C855.295 101.601 862.547 109.001 862.547 120.101C862.547 131.349 855.295 138.749 844.787 138.749C834.131 138.749 826.879 131.349 826.879 120.101ZM898.7 192.917H921.492V149.997C925.784 155.621 935.256 159.469 945.468 159.469C967.52 159.469 980.248 142.597 980.248 119.213C980.248 95.385 965.892 81.029 945.32 81.029C934.812 81.029 925.488 85.617 921.344 92.425L920.16 83.397H898.7V192.917ZM921.64 120.397C921.64 109.297 929.04 101.897 939.696 101.897C950.5 101.897 957.308 109.445 957.308 120.397C957.308 131.349 950.5 138.897 939.696 138.897C929.04 138.897 921.64 131.497 921.64 120.397ZM1027.7 159.321C1047.98 159.321 1062.63 148.813 1065.3 132.385H1044.43C1042.8 137.713 1036.73 140.821 1028.15 140.821C1018.08 140.821 1012.61 136.233 1011.28 126.465L1065 126.169V120.397C1065 96.273 1050.5 81.029 1027.26 81.029C1004.91 81.029 989.372 97.161 989.372 120.249C989.372 143.041 1005.36 159.321 1027.7 159.321ZM1027.41 99.529C1036.58 99.529 1042.36 104.561 1042.36 112.405H1011.57C1013.35 103.525 1018.38 99.529 1027.41 99.529ZM1129.41 83.397C1126.3 82.657 1123.34 82.361 1120.68 82.361C1110.76 82.361 1104.25 87.245 1101.14 94.497L1099.96 83.545H1078.5V157.397H1101.29V125.281C1101.29 110.629 1109.13 104.857 1122.16 104.857H1129.41V83.397ZM1176.85 79.697C1176.85 97.605 1186.91 108.705 1206.45 112.701L1223.17 116.105C1230.42 117.585 1233.23 120.693 1233.23 126.761C1233.23 133.717 1226.43 138.009 1215.62 138.009C1204.97 138.009 1199.05 133.569 1199.05 125.577H1175.22C1175.22 146.149 1191.05 159.321 1215.47 159.321C1240.63 159.321 1257.21 145.557 1257.21 124.393C1257.21 107.077 1247.89 97.753 1228.35 93.757L1211.92 90.353C1204.23 88.725 1200.82 85.469 1200.82 78.809C1200.82 71.557 1207.04 67.117 1216.81 67.117C1225.83 67.117 1231.61 71.853 1231.61 79.549H1255.43C1255.43 58.829 1240.63 45.805 1217.1 45.805C1193.57 45.805 1176.85 59.865 1176.85 79.697ZM1300.19 157.397V102.341H1314.25V83.397H1300.19V60.457H1277.39V83.397H1263.33V102.341H1277.39V157.397H1300.19ZM1373.63 83.397V121.877C1373.63 134.013 1369.63 139.045 1359.86 139.045C1350.54 139.045 1346.39 133.717 1346.39 121.581V83.397H1323.6V129.869C1323.6 148.073 1333.96 159.321 1350.83 159.321C1359.71 159.321 1368.89 155.177 1373.48 149.109L1374.96 157.397H1396.42V83.397H1373.63ZM1443.16 159.321C1453.81 159.321 1462.99 154.733 1466.98 147.925L1468.17 157.397H1489.63V45.805H1466.84V90.205C1462.54 84.729 1453.81 81.029 1444.64 81.029C1422.14 81.029 1408.08 97.309 1408.08 120.841C1408.08 144.225 1421.84 159.321 1443.16 159.321ZM1448.63 138.453C1437.83 138.453 1431.02 130.905 1431.02 119.953C1431.02 109.001 1437.83 101.453 1448.63 101.453C1459.29 101.453 1466.69 108.853 1466.69 119.953C1466.69 131.053 1459.29 138.453 1448.63 138.453ZM1541.08 159.321C1561.36 159.321 1576.01 148.813 1578.67 132.385H1557.8C1556.18 137.713 1550.11 140.821 1541.52 140.821C1531.46 140.821 1525.98 136.233 1524.65 126.465L1578.38 126.169V120.397C1578.38 96.273 1563.87 81.029 1540.64 81.029C1518.29 81.029 1502.75 97.161 1502.75 120.249C1502.75 143.041 1518.73 159.321 1541.08 159.321ZM1540.78 99.529C1549.96 99.529 1555.73 104.561 1555.73 112.405H1524.95C1526.72 103.525 1531.76 99.529 1540.78 99.529ZM1614.66 157.397V116.845C1614.66 107.669 1620.44 101.749 1629.46 101.749C1637.31 101.749 1642.49 107.817 1642.49 117.141V157.397H1665.28V111.665C1665.28 92.277 1655.07 81.029 1637.46 81.029C1627.84 81.029 1619.4 84.729 1614.81 91.093L1613.33 83.397H1591.87V157.397H1614.66ZM1711.52 157.397V102.341H1725.58V83.397H1711.52V60.457H1688.73V83.397H1674.67V102.341H1688.73V157.397H1711.52ZM1825.17 159.173C1852.55 159.173 1872.97 143.041 1876.82 118.621H1851.95C1848.99 129.425 1839.08 136.085 1825.61 136.085C1808 136.085 1797.05 123.209 1797.05 102.637C1797.05 81.769 1807.85 69.189 1825.61 69.189C1838.78 69.189 1848.11 75.405 1851.36 86.357H1876.67C1873.27 61.789 1853.58 46.101 1826.2 46.101C1793.49 46.101 1771.74 68.597 1771.74 102.785C1771.74 137.417 1792.31 159.173 1825.17 159.173ZM1901.29 71.853C1908.39 71.853 1914.16 66.081 1914.16 58.829C1914.16 51.577 1908.39 45.953 1901.29 45.953C1894.04 45.953 1888.26 51.577 1888.26 58.829C1888.26 66.081 1894.04 71.853 1901.29 71.853ZM1890.04 157.397H1912.83V83.397H1890.04V157.397ZM1980.84 83.397C1977.73 82.657 1974.77 82.361 1972.11 82.361C1962.19 82.361 1955.68 87.245 1952.57 94.497L1951.39 83.545H1929.93V157.397H1952.72V125.281C1952.72 110.629 1960.57 104.857 1973.59 104.857H1980.84V83.397ZM1986.2 120.101C1986.2 143.781 2001.3 159.321 2024.68 159.321C2045.4 159.321 2060.5 146.593 2061.98 127.945H2039.04C2037.56 135.197 2032.68 138.897 2024.68 138.897C2014.92 138.897 2009.14 131.941 2009.14 120.101C2009.14 108.705 2015.36 101.453 2024.98 101.453C2032.82 101.453 2037.41 105.005 2039.04 112.405H2061.98C2060.5 93.017 2046 81.029 2024.09 81.029C2001.89 81.029 1986.2 97.309 1986.2 120.101ZM2123.6 83.397V121.877C2123.6 134.013 2119.6 139.045 2109.83 139.045C2100.51 139.045 2096.37 133.717 2096.37 121.581V83.397H2073.57V129.869C2073.57 148.073 2083.93 159.321 2100.81 159.321C2109.69 159.321 2118.86 155.177 2123.45 149.109L2124.93 157.397H2146.39V83.397H2123.6ZM2174.74 71.853C2181.85 71.853 2187.62 66.081 2187.62 58.829C2187.62 51.577 2181.85 45.953 2174.74 45.953C2167.49 45.953 2161.72 51.577 2161.72 58.829C2161.72 66.081 2167.49 71.853 2174.74 71.853ZM2163.49 157.397H2186.29V83.397H2163.49V157.397ZM2233.28 157.397V102.341H2247.34V83.397H2233.28V60.457H2210.49V83.397H2196.43V102.341H2210.49V157.397H2233.28Z" fill="#1F2937"/>
</g>
<defs>
<filter id="filter0_ii" x="-3.69995" y="-3.60303" width="368" height="208" filterUnits="userSpaceOnUse" color-interpolation-filters="sRGB">
<feFlood flood-opacity="0" result="BackgroundImageFix"/>
<feBlend mode="normal" in="SourceGraphic" in2="BackgroundImageFix" result="shape"/>
<feColorMatrix in="SourceAlpha" type="matrix" values="0 0 0 0 0 0 0 0 0 0 0 0 0 0 0 0 0 0 127 0" result="hardAlpha"/>
<feOffset dx="4" dy="-4"/>
<feGaussianBlur stdDeviation="2"/>
<feComposite in2="hardAlpha" operator="arithmetic" k2="-1" k3="1"/>
<feColorMatrix type="matrix" values="0 0 0 0 0 0 0 0 0 0 0 0 0 0 0 0 0 0 0.2 0"/>
<feBlend mode="normal" in2="shape" result="effect1_innerShadow"/>
<feColorMatrix in="SourceAlpha" type="matrix" values="0 0 0 0 0 0 0 0 0 0 0 0 0 0 0 0 0 0 127 0" result="hardAlpha"/>
<feOffset dx="-4" dy="4"/>
<feGaussianBlur stdDeviation="2"/>
<feComposite in2="hardAlpha" operator="arithmetic" k2="-1" k3="1"/>
<feColorMatrix type="matrix" values="0 0 0 0 1 0 0 0 0 1 0 0 0 0 1 0 0 0 0.2 0"/>
<feBlend mode="normal" in2="effect1_innerShadow" result="effect2_innerShadow"/>
</filter>
<filter id="filter1_ii" x="407.696" y="41.8052" width="1843.64" height="155.112" filterUnits="userSpaceOnUse" color-interpolation-filters="sRGB">
<feFlood flood-opacity="0" result="BackgroundImageFix"/>
<feBlend mode="normal" in="SourceGraphic" in2="BackgroundImageFix" result="shape"/>
<feColorMatrix in="SourceAlpha" type="matrix" values="0 0 0 0 0 0 0 0 0 0 0 0 0 0 0 0 0 0 127 0" result="hardAlpha"/>
<feOffset dx="-4" dy="4"/>
<feGaussianBlur stdDeviation="2"/>
<feComposite in2="hardAlpha" operator="arithmetic" k2="-1" k3="1"/>
<feColorMatrix type="matrix" values="0 0 0 0 0.658333 0 0 0 0 0.658333 0 0 0 0 0.658333 0 0 0 0.2 0"/>
<feBlend mode="normal" in2="shape" result="effect1_innerShadow"/>
<feColorMatrix in="SourceAlpha" type="matrix" values="0 0 0 0 0 0 0 0 0 0 0 0 0 0 0 0 0 0 127 0" result="hardAlpha"/>
<feOffset dx="4" dy="-4"/>
<feGaussianBlur stdDeviation="2"/>
<feComposite in2="hardAlpha" operator="arithmetic" k2="-1" k3="1"/>
<feColorMatrix type="matrix" values="0 0 0 0 0 0 0 0 0 0 0 0 0 0 0 0 0 0 0.4 0"/>
<feBlend mode="normal" in2="effect1_innerShadow" result="effect2_innerShadow"/>
</filter>
</defs>
</svg>
