<svg width="64" height="81" viewBox="0 0 64 81" fill="none" xmlns="http://www.w3.org/2000/svg">
<path d="M61.3335 4.45977C61.3335 3.39906 60.9121 2.38114 60.1621 1.63127C59.4121 0.881402 58.3942 0.459839 57.3336 0.459839H6.66685C5.60614 0.459839 4.58821 0.881264 3.83835 1.63127C3.08848 2.38127 2.66692 3.3992 2.66692 4.45977V19.1265H0.000244141V21.7931H2.66692V43.1265H0.000244141V45.7932H2.66692V76.4599C2.66692 77.5206 3.08834 78.5385 3.83835 79.2884C4.58835 80.0383 5.60627 80.4598 6.66685 80.4598H57.3336C58.3943 80.4598 59.4122 80.0384 60.1621 79.2884C60.912 78.5384 61.3335 77.5205 61.3335 76.4599V45.7932H64.0002V43.1265H61.3335V21.7931H64.0002V19.1265H61.3335V4.45977ZM48.0002 3.12643H50.6669V8.05978L50.443 7.72407C50.1811 7.37406 49.7704 7.16812 49.3335 7.16812C48.8966 7.16812 48.4859 7.37408 48.224 7.72407L48.0002 8.05978V3.12643ZM58.6669 43.1265H48.0002V45.7932H58.6669V76.4599C58.6669 76.8135 58.5264 77.1528 58.2764 77.4028C58.0264 77.6528 57.6871 77.7932 57.3335 77.7932H6.66677C5.93046 77.7932 5.33343 77.1962 5.33343 76.4599V45.7932H16.0001V43.1265H5.33343V21.7931H15.4483L20.3913 26.7361L22.2764 24.851L16.9431 19.5176V19.517C16.6931 19.267 16.3538 19.1266 16.0002 19.1266H5.33351V4.45986C5.33351 3.72355 5.93054 3.12653 6.66685 3.12653H45.3336V12.4599C45.3336 13.0474 45.7181 13.5658 46.2806 13.7361C46.8425 13.9063 47.4503 13.689 47.7764 13.1998L49.3336 10.8599L50.8908 13.1956C51.2164 13.6843 51.823 13.9022 52.3849 13.7331C52.9468 13.5635 53.3319 13.0468 53.3337 12.4599V3.12657H57.3337C57.6873 3.12657 58.0265 3.26705 58.2765 3.51705C58.5265 3.76705 58.667 4.10634 58.667 4.45991V19.1266H48.0003C47.6468 19.1266 47.3075 19.2671 47.0575 19.5171L41.7241 24.8504L43.6092 26.7355L48.5522 21.7932H58.6671L58.6669 43.1265Z" fill="#0850FD"/>
<path d="M20.5899 49.7932H25.3327C25.8381 49.7932 26.3 49.5081 26.5262 49.0557L27.2196 47.6688L28.0678 50.214L28.0673 50.2146C27.1684 51.1896 26.6684 52.467 26.6661 53.7931C26.6661 56.5395 28.7435 61.7932 31.9994 61.7932C35.2553 61.7932 37.3327 56.5395 37.3327 53.7931C37.3292 52.4675 36.828 51.1914 35.9286 50.2169L36.778 47.6705L37.4714 49.0586C37.6982 49.5097 38.1607 49.7943 38.6661 49.7931H43.4089C44.2828 49.7931 45.1011 49.3645 45.5994 48.6467C46.097 47.9282 46.2119 47.0116 45.906 46.193L43.2299 39.0597H43.2305C42.9733 38.3806 42.5376 37.7841 41.9685 37.3336C41.3995 36.883 40.7191 36.5943 39.9995 36.4996V28.7061C40.0048 27.3716 39.6048 26.0669 38.8513 24.965C34.8566 19.1263 32.706 19.1263 31.9994 19.1263C31.2928 19.1263 29.1405 19.1263 25.1476 24.9639C24.3952 26.0663 23.9946 27.3717 23.9994 28.7062V36.4998C23.2803 36.5944 22.6 36.8819 22.0315 37.3319C21.4625 37.7819 21.0262 38.3778 20.7684 39.0557L18.0928 46.1932C17.7868 47.0117 17.9017 47.9284 18.3993 48.6468C18.8975 49.3647 19.716 49.7933 20.5898 49.7933L20.5899 49.7932ZM34.15 47.1265L33.7047 48.4599H30.294L29.8487 47.1265H34.15ZM31.9994 59.1266C31.0018 59.1266 29.3327 55.7867 29.3327 53.7932C29.3327 52.8402 29.8411 51.9599 30.6661 51.4837C31.4911 51.0075 32.5077 51.0075 33.3327 51.4837C34.1577 51.9599 34.6661 52.8403 34.6661 53.7932C34.6661 55.7932 32.997 59.1266 31.9994 59.1266ZM40.7327 39.992L43.4088 47.1265H39.4897L39.3736 46.8944C39.7576 46.6593 39.9939 46.2432 39.9992 45.7932V39.2449C40.3361 39.383 40.601 39.6527 40.7326 39.9919L40.7327 39.992ZM26.6661 28.7064C26.6619 27.9094 26.8994 27.1302 27.3476 26.4706C29.8791 22.7707 31.4982 21.7933 31.9994 21.7933C32.5005 21.7933 34.1196 22.7707 36.6511 26.4719C37.0993 27.1308 37.3368 27.91 37.3327 28.7064V44.4596H33.3326V36.4595H30.666V44.4596H26.666L26.6661 28.7064ZM23.2649 39.9916V39.9922C23.3976 39.6535 23.6631 39.3838 23.9994 39.2452V45.7934C24.0048 46.2434 24.2411 46.6595 24.625 46.8946L24.509 47.1268H20.5899L23.2649 39.9916Z" fill="#0850FD"/>
<path d="M32.0002 32.4598C33.0609 32.4598 34.0788 32.0384 34.8287 31.2884C35.5785 30.5384 36.0001 29.5205 36.0001 28.4599C36.0001 27.3993 35.5787 26.3813 34.8287 25.6314C34.0787 24.8815 33.0608 24.46 32.0002 24.46C30.9396 24.46 29.9215 24.8814 29.1717 25.6314C28.4218 26.3814 28.0002 27.3993 28.0002 28.4599C28.0002 29.5205 28.4217 30.5385 29.1717 31.2884C29.9217 32.0383 30.9396 32.4598 32.0002 32.4598ZM32.0002 27.1265C32.5395 27.1265 33.0258 27.4515 33.2317 27.9497C33.4383 28.4479 33.3246 29.0211 32.943 29.4027C32.5615 29.7842 31.9883 29.8979 31.4901 29.6914C30.9918 29.4854 30.6668 28.9991 30.6668 28.4598C30.6668 27.7235 31.2639 27.1265 32.0002 27.1265Z" fill="#0850FD"/>
<path d="M40 52.4598H42.6667V57.7932H40V52.4598Z" fill="#0850FD"/>
<path d="M21.3335 52.4598H24.0002V57.7932H21.3335V52.4598Z" fill="#0850FD"/>
<path d="M41.3335 61.7932C40.2727 61.7932 39.2548 62.2146 38.5049 62.9646C37.7551 63.7146 37.3335 64.7326 37.3335 65.7931H40.0002C40.0002 65.0568 40.5972 64.4598 41.3335 64.4598C42.0698 64.4598 42.6669 65.0568 42.6669 65.7931C42.6651 65.8699 42.6585 65.9467 42.6484 66.0223C42.5937 66.5259 42.8282 67.0164 43.2544 67.2896C43.6806 67.5622 44.2246 67.5705 44.6591 67.3104C44.8627 67.189 45.0961 67.1253 45.3336 67.1265C46.0699 67.1265 46.6669 67.7235 46.6669 68.4598C46.6669 69.1961 46.0699 69.7932 45.3336 69.7932H18.6668C17.9305 69.7932 17.3335 69.1961 17.3335 68.4598C17.3335 67.7235 17.9305 67.1265 18.6668 67.1265C18.9043 67.1247 19.1377 67.1884 19.3412 67.3104C19.777 67.5717 20.3228 67.5628 20.7496 67.2884C21.1758 67.0134 21.4097 66.5199 21.352 66.0158C21.3412 65.9419 21.3347 65.8675 21.3335 65.7931C21.3335 65.0568 21.9305 64.4598 22.6668 64.4598C23.4032 64.4598 24.0002 65.0568 24.0002 65.7931H26.6669C26.668 64.5235 26.0657 63.3282 25.0443 62.5735C24.0235 61.8187 22.7045 61.5937 21.4908 61.9669C20.2771 62.3401 19.3128 63.2681 18.8925 64.4663C17.7961 64.4127 16.7258 64.8091 15.9282 65.5627C15.1312 66.3163 14.6753 67.3626 14.6669 68.4598C14.6711 68.9151 14.7544 69.3663 14.9122 69.7931H10.667V72.4598H53.3337V69.7931H49.0885C49.2463 69.3663 49.3296 68.9151 49.3338 68.4598C49.3308 67.3604 48.8766 66.3109 48.0772 65.5562C47.2784 64.8008 46.2046 64.4073 45.107 64.4663C44.8326 63.6847 44.3219 63.0079 43.6457 62.5294C42.9701 62.0502 42.1624 61.7931 41.3338 61.7931L41.3335 61.7932Z" fill="#0850FD"/>
</svg>
