<svg width="82" height="82" viewBox="0 0 82 82" fill="none" xmlns="http://www.w3.org/2000/svg">
<path d="M62.1355 60.0774C62.1355 58.7096 60.9851 57.597 59.571 57.597H56.7049C56.1817 50.7311 48.1351 49.6414 46.1238 49.4818L44.6082 46.4314C46.8042 45.3622 48.4027 43.3207 48.8032 40.8923H55.9697V39.5014L48.8995 39.5021C48.8141 36.392 46.774 33.7495 43.9246 32.6809H48.3455V31.29L26.0321 31.2894V32.6802H38.3124C35.3999 33.7724 33.3278 36.5049 33.3278 39.7033C33.3278 42.6445 35.0829 45.1914 37.63 46.432L36.9926 47.7135H26.0323V49.1043H36.3012L36.1132 49.4819C34.1027 49.6414 26.0554 50.7311 25.5321 57.5971H22.44C21.0258 57.5971 19.8755 58.7097 19.8755 60.0775V76.0409L1 76.0396V81H81V76.0396H62.136L62.1355 60.0774ZM2.43745 79.6108V77.4321H19.8734V78.5218C19.8734 78.7062 19.8972 78.8844 19.937 79.0576C19.9504 79.1154 19.9736 79.1681 19.9909 79.2246C20.0256 79.3376 20.0628 79.4482 20.1129 79.5531C20.1212 79.5717 20.1251 79.5928 20.134 79.6115L2.43745 79.6108ZM34.8854 40.8937C34.8071 40.5081 34.7635 40.1114 34.7635 39.704C34.7635 39.6364 34.7718 39.5705 34.7737 39.5029C34.8848 36.2078 37.6843 33.5584 41.1167 33.5584C44.5505 33.5584 47.35 36.2072 47.4609 39.5029C47.4628 39.5705 47.4712 39.6364 47.4712 39.704C47.4712 40.1114 47.4282 40.5087 47.3492 40.8937C46.774 43.7144 44.1992 45.8498 41.116 45.8498C38.0347 45.8498 35.4605 43.7144 34.8854 40.8937H34.8854ZM36.5948 50.8461L37.0359 50.8361L38.9706 46.9425C39.6542 47.1325 40.3732 47.2399 41.1191 47.2399C41.865 47.2399 42.584 47.1325 43.2683 46.9425L45.203 50.8368L45.644 50.8461C46.0253 50.8535 54.6657 51.136 55.262 57.5972H26.9767C27.5737 51.1522 36.2128 50.8548 36.5947 50.8461L36.5948 50.8461ZM60.6979 76.0413V78.5217C60.6979 79.1227 60.1927 79.6114 59.5713 79.6114L22.4398 79.6108C21.8184 79.6108 21.3132 79.1221 21.3132 78.5211V60.0765C21.3132 59.4754 21.8184 58.9868 22.4398 58.9868H59.5713C60.1927 58.9868 60.6979 59.4754 60.6979 60.0765V76.0413ZM79.5636 77.4321V79.6108H61.8745C61.8842 79.5922 61.8867 79.5711 61.8957 79.5525C61.9458 79.4469 61.983 79.3364 62.0177 79.224C62.035 79.1675 62.0581 79.1147 62.0716 79.057C62.1108 78.8838 62.1352 78.7056 62.1352 78.5211V77.4315L79.5636 77.4321Z" fill="#0850FD" stroke="#0850FD" stroke-linejoin="round"/>
<path d="M37.173 63.865C36.899 63.6001 36.4643 63.6002 36.1904 63.8652L31.3172 68.5797C30.9109 68.9727 30.911 69.6241 31.3173 70.0172L36.1902 74.7309C36.4642 74.996 36.8991 74.996 37.1731 74.7309C37.4604 74.4531 37.4604 73.9925 37.1731 73.7147L33.3504 70.0172C32.9441 69.6242 32.944 68.9728 33.3503 68.5797L37.1732 64.8811C37.4604 64.6033 37.4603 64.1428 37.173 63.865Z" fill="#0850FD" stroke="#0850FD" stroke-linejoin="round"/>
<path d="M44.8372 63.8658C44.5499 64.1436 44.5498 64.6041 44.8371 64.882L48.6609 68.5805C49.0673 68.9736 49.0672 69.6252 48.6608 70.0182L44.8372 73.7156C44.5498 73.9934 44.5498 74.454 44.8371 74.7318C45.1111 74.9969 45.546 74.9969 45.82 74.7319L50.694 70.0181C51.1004 69.6251 51.1004 68.9735 50.694 68.5805L45.8198 63.866C45.5458 63.601 45.1112 63.6009 44.8372 63.8658Z" fill="#0850FD" stroke="#0850FD" stroke-linejoin="round"/>
<path d="M40.1839 74.2499C40.0651 74.6221 39.6702 74.8306 39.2959 74.7188C38.9116 74.604 38.6963 74.1962 38.8182 73.8141L41.8391 64.3479C41.9579 63.9757 42.3528 63.7672 42.7271 63.879C43.1114 63.9938 43.3267 64.4016 43.2048 64.7837L40.1839 74.2499Z" fill="#0850FD" stroke="#0850FD" stroke-linejoin="round"/>
<path d="M1.7369 25.4702C2.01113 25.7355 2.44635 25.7355 2.72059 25.4702L14.3809 14.1909C14.7872 13.7978 14.7872 13.1463 14.3808 12.7533L2.7199 1.47504C2.44598 1.21011 2.01137 1.20998 1.73729 1.47475C1.44972 1.75255 1.44958 2.21336 1.737 2.49133L12.3477 12.7532C12.7541 13.1462 12.7541 13.7978 12.3477 14.1908L1.73696 24.4533C1.4495 24.7313 1.44948 25.1921 1.7369 25.4702Z" fill="#0850FD" stroke="#0850FD" stroke-linejoin="round"/>
<path d="M21.9769 7.37918C21.9769 6.99512 22.2882 6.68378 22.6723 6.68378H32.4037C32.7878 6.68378 33.0991 6.99512 33.0991 7.37918C33.0991 7.76325 32.7878 8.07459 32.4037 8.07459H22.6723C22.2882 8.07459 21.9769 7.76325 21.9769 7.37918Z" fill="#0850FD" stroke="#0850FD" stroke-linejoin="round"/>
<path d="M40.0209 7.37918C40.0209 6.99512 40.3322 6.68378 40.7163 6.68378H55.8855C56.2696 6.68378 56.581 6.99512 56.581 7.37918C56.581 7.76325 56.2696 8.07459 55.8855 8.07459H40.7163C40.3322 8.07459 40.0209 7.76325 40.0209 7.37918Z" fill="#0850FD" stroke="#0850FD" stroke-linejoin="round"/>
<path d="M65.5159 7.37918C65.5159 6.99512 65.8272 6.68378 66.2113 6.68378H67.7368C68.1208 6.68378 68.4322 6.99512 68.4322 7.37918C68.4322 7.76325 68.1208 8.07459 67.7368 8.07459H66.2113C65.8272 8.07459 65.5159 7.76325 65.5159 7.37918Z" fill="#0850FD" stroke="#0850FD" stroke-linejoin="round"/>
<path d="M76.6759 7.37918C76.6759 6.99512 76.9872 6.68378 77.3713 6.68378H79.5875C79.9715 6.68378 80.2829 6.99512 80.2829 7.37918C80.2829 7.76325 79.9715 8.07459 79.5875 8.07459H77.3713C76.9872 8.07459 76.6759 7.76325 76.6759 7.37918Z" fill="#0850FD" stroke="#0850FD" stroke-linejoin="round"/>
<path d="M69.1608 13.4724C69.1608 13.0883 69.4722 12.777 69.8562 12.777H79.5876C79.9717 12.777 80.283 13.0883 80.283 13.4724C80.283 13.8564 79.9717 14.1678 79.5876 14.1678H69.8562C69.4722 14.1678 69.1608 13.8564 69.1608 13.4724Z" fill="#0850FD" stroke="#0850FD" stroke-linejoin="round"/>
<path d="M45.679 13.4724C45.679 13.0883 45.9903 12.777 46.3744 12.777H61.5436C61.9277 12.777 62.239 13.0883 62.239 13.4724C62.239 13.8564 61.9277 14.1678 61.5436 14.1678H46.3744C45.9903 14.1678 45.679 13.8564 45.679 13.4724Z" fill="#0850FD" stroke="#0850FD" stroke-linejoin="round"/>
<path d="M33.8287 13.4724C33.8287 13.0883 34.1401 12.777 34.5241 12.777H36.0496C36.4337 12.777 36.745 13.0883 36.745 13.4724C36.745 13.8564 36.4337 14.1678 36.0496 14.1678H34.5241C34.1401 14.1678 33.8287 13.8564 33.8287 13.4724Z" fill="#0850FD" stroke="#0850FD" stroke-linejoin="round"/>
<path d="M21.9769 13.4724C21.9769 13.0883 22.2882 12.777 22.6723 12.777H24.8885C25.2725 12.777 25.5839 13.0883 25.5839 13.4724C25.5839 13.8564 25.2725 14.1678 24.8885 14.1678H22.6723C22.2882 14.1678 21.9769 13.8564 21.9769 13.4724Z" fill="#0850FD" stroke="#0850FD" stroke-linejoin="round"/>
<path d="M21.9769 19.5681C21.9769 19.184 22.2882 18.8727 22.6723 18.8727H32.4037C32.7878 18.8727 33.0991 19.184 33.0991 19.5681C33.0991 19.9522 32.7878 20.2635 32.4037 20.2635H22.6723C22.2882 20.2635 21.9769 19.9522 21.9769 19.5681Z" fill="#0850FD" stroke="#0850FD" stroke-linejoin="round"/>
<path d="M40.0209 19.5681C40.0209 19.184 40.3322 18.8727 40.7163 18.8727H55.8855C56.2696 18.8727 56.581 19.184 56.581 19.5681C56.581 19.9522 56.2696 20.2635 55.8855 20.2635H40.7163C40.3322 20.2635 40.0209 19.9522 40.0209 19.5681Z" fill="#0850FD" stroke="#0850FD" stroke-linejoin="round"/>
<path d="M65.5159 19.5681C65.5159 19.184 65.8272 18.8727 66.2113 18.8727H67.7368C68.1208 18.8727 68.4322 19.184 68.4322 19.5681C68.4322 19.9522 68.1208 20.2635 67.7368 20.2635H66.2113C65.8272 20.2635 65.5159 19.9522 65.5159 19.5681Z" fill="#0850FD" stroke="#0850FD" stroke-linejoin="round"/>
<path d="M76.6759 19.5681C76.6759 19.184 76.9872 18.8727 77.3713 18.8727H79.5875C79.9715 18.8727 80.2829 19.184 80.2829 19.5681C80.2829 19.9522 79.9715 20.2635 79.5875 20.2635H77.3713C76.9872 20.2635 76.6759 19.9522 76.6759 19.5681Z" fill="#0850FD" stroke="#0850FD" stroke-linejoin="round"/>
<path d="M1.7193 31.9853C1.7193 31.6013 2.03064 31.2899 2.41471 31.2899H16.0098C16.3938 31.2899 16.7052 31.6013 16.7052 31.9853C16.7052 32.3694 16.3938 32.6807 16.0098 32.6807H2.41471C2.03064 32.6807 1.7193 32.3694 1.7193 31.9853Z" fill="#0850FD" stroke="#0850FD" stroke-linejoin="round"/>
<path d="M60.3853 31.9853C60.3853 31.6013 60.6967 31.2899 61.0808 31.2899H63.6192C64.0033 31.2899 64.3146 31.6013 64.3146 31.9853C64.3146 32.3694 64.0033 32.6807 63.6192 32.6807H61.0808C60.6967 32.6807 60.3853 32.3694 60.3853 31.9853Z" fill="#0850FD" stroke="#0850FD" stroke-linejoin="round"/>
<path d="M75.422 31.9853C75.422 31.6013 75.7333 31.2899 76.1174 31.2899H79.586C79.97 31.2899 80.2814 31.6013 80.2814 31.9853C80.2814 32.3694 79.97 32.6807 79.586 32.6807H76.1174C75.7333 32.6807 75.422 32.3694 75.422 31.9853Z" fill="#0850FD" stroke="#0850FD" stroke-linejoin="round"/>
<path d="M65.2973 40.1967C65.2973 39.8126 65.6086 39.5013 65.9927 39.5013H79.5878C79.9718 39.5013 80.2832 39.8126 80.2832 40.1967C80.2832 40.5808 79.9718 40.8921 79.5878 40.8921H65.9927C65.6086 40.8921 65.2973 40.5808 65.2973 40.1967Z" fill="#0850FD" stroke="#0850FD" stroke-linejoin="round"/>
<path d="M17.6877 40.1967C17.6877 39.8126 17.9991 39.5013 18.3832 39.5013H20.9216C21.3057 39.5013 21.617 39.8126 21.617 40.1967C21.617 40.5808 21.3057 40.8921 20.9216 40.8921H18.3832C17.9991 40.8921 17.6877 40.5808 17.6877 40.1967Z" fill="#0850FD" stroke="#0850FD" stroke-linejoin="round"/>
<path d="M1.7193 40.1967C1.7193 39.8126 2.03064 39.5013 2.41471 39.5013H5.88328C6.26734 39.5013 6.57869 39.8126 6.57869 40.1967C6.57869 40.5808 6.26734 40.8921 5.88328 40.8921H2.41471C2.03064 40.8921 1.7193 40.5808 1.7193 40.1967Z" fill="#0850FD" stroke="#0850FD" stroke-linejoin="round"/>
<path d="M1.7193 48.4096C1.7193 48.0256 2.03064 47.7142 2.41471 47.7142H16.0098C16.3938 47.7142 16.7052 48.0256 16.7052 48.4096C16.7052 48.7937 16.3938 49.105 16.0098 49.105H2.41471C2.03064 49.105 1.7193 48.7937 1.7193 48.4096Z" fill="#0850FD" stroke="#0850FD" stroke-linejoin="round"/>
<path d="M60.3853 48.4096C60.3853 48.0256 60.6967 47.7142 61.0808 47.7142H63.6192C64.0033 47.7142 64.3146 48.0256 64.3146 48.4096C64.3146 48.7937 64.0033 49.105 63.6192 49.105H61.0808C60.6967 49.105 60.3853 48.7937 60.3853 48.4096Z" fill="#0850FD" stroke="#0850FD" stroke-linejoin="round"/>
<path d="M75.422 48.4096C75.422 48.0256 75.7333 47.7142 76.1174 47.7142H79.586C79.97 47.7142 80.2814 48.0256 80.2814 48.4096C80.2814 48.7937 79.97 49.105 79.586 49.105H76.1174C75.7333 49.105 75.422 48.7937 75.422 48.4096Z" fill="#0850FD" stroke="#0850FD" stroke-linejoin="round"/>
</svg>
