<svg width="82" height="80" viewBox="0 0 82 80" fill="none" xmlns="http://www.w3.org/2000/svg">
<path d="M37.2339 2.60571H38.0386V3.98594H37.2339V2.60571Z" fill="#0850FD"/>
<path d="M38.0385 1.22827H38.8398V2.60578H38.0385V1.22827Z" fill="#0850FD"/>
<path d="M38.8395 2.60571H39.6408V3.98594H38.8395V2.60571Z" fill="#0850FD"/>
<path d="M39.6423 1.22827H40.4409V2.60578H39.6423V1.22827Z" fill="#0850FD"/>
<path d="M40.4434 2.60571H41.2447V3.98594H40.4434V2.60571Z" fill="#0850FD"/>
<path d="M41.2444 1.22827H42.0457V2.60578H41.2444V1.22827Z" fill="#0850FD"/>
<path d="M42.0455 2.60571H42.8469V3.98594H42.0455V2.60571Z" fill="#0850FD"/>
<path d="M42.85 1.22827H43.6486V2.60578H42.85V1.22827Z" fill="#0850FD"/>
<path d="M43.6493 2.60571H44.4506V3.98594H43.6493V2.60571Z" fill="#0850FD"/>
<path d="M44.4539 1.22827H45.2552V2.60578H44.4539V1.22827Z" fill="#0850FD"/>
<path d="M45.255 2.60571H46.0563V3.98594H45.255V2.60571Z" fill="#0850FD"/>
<path d="M46.056 1.22827H46.8574V2.60578H46.056V1.22827Z" fill="#0850FD"/>
<path d="M46.8588 2.60571H47.6601V3.98594H46.8588V2.60571Z" fill="#0850FD"/>
<path d="M47.6564 1.22827H48.4611V2.60578H47.6564V1.22827Z" fill="#0850FD"/>
<path d="M48.4609 2.60571H49.2623V3.98594H48.4609V2.60571Z" fill="#0850FD"/>
<path d="M37.2339 5.36426H38.0386V6.74449H37.2339V5.36426Z" fill="#0850FD"/>
<path d="M38.0385 3.98682H38.8398V5.36705H38.0385V3.98682Z" fill="#0850FD"/>
<path d="M38.8395 5.36426H39.6408V6.74449H38.8395V5.36426Z" fill="#0850FD"/>
<path d="M39.6423 3.98682H40.4437V5.36705H39.6423V3.98682Z" fill="#0850FD"/>
<path d="M40.4434 5.36426H41.2447V6.74449H40.4434V5.36426Z" fill="#0850FD"/>
<path d="M41.2444 3.98682H42.0457V5.36705H41.2444V3.98682Z" fill="#0850FD"/>
<path d="M42.0455 5.36426H42.8469V6.74449H42.0455V5.36426Z" fill="#0850FD"/>
<path d="M42.8483 3.98682H43.6496V5.36705H42.8483V3.98682Z" fill="#0850FD"/>
<path d="M43.6493 5.36426H44.4506V6.74449H43.6493V5.36426Z" fill="#0850FD"/>
<path d="M44.4504 3.98682H45.2518V5.36705H44.4504V3.98682Z" fill="#0850FD"/>
<path d="M45.255 5.36426H46.0563V6.74449H45.255V5.36426Z" fill="#0850FD"/>
<path d="M46.056 3.98682H46.8574V5.36705H46.056V3.98682Z" fill="#0850FD"/>
<path d="M46.8588 5.36426H47.6601V6.74449H46.8588V5.36426Z" fill="#0850FD"/>
<path d="M47.6599 3.98682H48.4613V5.36705H47.6599V3.98682Z" fill="#0850FD"/>
<path d="M48.4609 5.36426H49.2623V6.74449H48.4609V5.36426Z" fill="#0850FD"/>
<path d="M37.2339 8.12207H38.0352V9.5023H37.2339V8.12207Z" fill="#0850FD"/>
<path d="M38.0385 6.74438H38.8398V8.12462H38.0385V6.74438Z" fill="#0850FD"/>
<path d="M38.8395 8.12207H39.6408V9.5023H38.8395V8.12207Z" fill="#0850FD"/>
<path d="M39.6423 6.74438H40.4437V8.12462H39.6423V6.74438Z" fill="#0850FD"/>
<path d="M40.4434 8.12207H41.2447V9.5023H40.4434V8.12207Z" fill="#0850FD"/>
<path d="M41.2444 6.74438H42.0457V8.12462H41.2444V6.74438Z" fill="#0850FD"/>
<path d="M42.0455 8.12207H42.8469V9.5023H42.0455V8.12207Z" fill="#0850FD"/>
<path d="M42.8483 6.74438H43.6496V8.12462H42.8483V6.74438Z" fill="#0850FD"/>
<path d="M43.6493 8.12207H44.4506V9.5023H43.6493V8.12207Z" fill="#0850FD"/>
<path d="M44.4504 6.74438H45.2518V8.12462H44.4504V6.74438Z" fill="#0850FD"/>
<path d="M45.255 8.12207H46.0563V9.5023H45.255V8.12207Z" fill="#0850FD"/>
<path d="M46.056 6.74438H46.8574V8.12462H46.056V6.74438Z" fill="#0850FD"/>
<path d="M46.8588 8.12207H47.6601V9.5023H46.8588V8.12207Z" fill="#0850FD"/>
<path d="M47.6599 6.74438H48.4613V8.12462H47.6599V6.74438Z" fill="#0850FD"/>
<path d="M48.4609 8.12207H49.2623V9.5023H48.4609V8.12207Z" fill="#0850FD"/>
<path d="M49.262 1.22827H50.0667V2.60578H49.262V1.22827Z" fill="#0850FD"/>
<path d="M50.0631 2.60571H50.8644V3.98594H50.0631V2.60571Z" fill="#0850FD"/>
<path d="M50.8658 1.22827H51.6706V2.60578H50.8658V1.22827Z" fill="#0850FD"/>
<path d="M51.6704 2.60571H52.4717V3.98594H51.6704V2.60571Z" fill="#0850FD"/>
<path d="M52.468 1.22827H53.2728V2.60578H52.468V1.22827Z" fill="#0850FD"/>
<path d="M53.2726 2.60571H54.0739V3.98594H53.2726V2.60571Z" fill="#0850FD"/>
<path d="M54.0736 1.22827H54.8783V2.60578H54.0736V1.22827Z" fill="#0850FD"/>
<path d="M54.8763 2.60571H55.6777V3.98594H54.8763V2.60571Z" fill="#0850FD"/>
<path d="M55.6775 1.22827H56.4822V2.60578H55.6775V1.22827Z" fill="#0850FD"/>
<path d="M56.4785 2.60571H57.2799V3.98594H56.4785V2.60571Z" fill="#0850FD"/>
<path d="M57.2795 1.22827H58.0843V2.60578H57.2795V1.22827Z" fill="#0850FD"/>
<path d="M58.0858 2.60571H58.8872V3.98594H58.0858V2.60571Z" fill="#0850FD"/>
<path d="M58.8834 1.22827H59.6882V2.60578H58.8834V1.22827Z" fill="#0850FD"/>
<path d="M49.262 3.98682H50.0633V5.36705H49.262V3.98682Z" fill="#0850FD"/>
<path d="M50.0631 5.36426H50.8644V6.74449H50.0631V5.36426Z" fill="#0850FD"/>
<path d="M50.8658 3.98682H51.6672V5.36705H50.8658V3.98682Z" fill="#0850FD"/>
<path d="M51.6704 5.36426H52.4717V6.74449H51.6704V5.36426Z" fill="#0850FD"/>
<path d="M52.4714 3.98682H53.2728V5.36705H52.4714V3.98682Z" fill="#0850FD"/>
<path d="M53.2726 5.36426H54.0739V6.74449H53.2726V5.36426Z" fill="#0850FD"/>
<path d="M54.0736 3.98682H54.8749V5.36705H54.0736V3.98682Z" fill="#0850FD"/>
<path d="M54.8763 5.36426H55.6777V6.74449H54.8763V5.36426Z" fill="#0850FD"/>
<path d="M55.6775 3.98682H56.4788V5.36705H55.6775V3.98682Z" fill="#0850FD"/>
<path d="M56.4785 5.36426H57.2799V6.74449H56.4785V5.36426Z" fill="#0850FD"/>
<path d="M57.2795 3.98682H58.0809V5.36705H57.2795V3.98682Z" fill="#0850FD"/>
<path d="M58.0858 5.36426H58.8872V6.74449H58.0858V5.36426Z" fill="#0850FD"/>
<path d="M58.8834 3.98682H59.6882V5.36705H58.8834V3.98682Z" fill="#0850FD"/>
<path d="M49.262 6.74438H50.0633V8.12462H49.262V6.74438Z" fill="#0850FD"/>
<path d="M50.0631 8.12207H50.8644V9.5023H50.0631V8.12207Z" fill="#0850FD"/>
<path d="M50.8658 6.74438H51.6672V8.12462H50.8658V6.74438Z" fill="#0850FD"/>
<path d="M51.6704 8.12207H52.4717V9.5023H51.6704V8.12207Z" fill="#0850FD"/>
<path d="M52.4714 6.74438H53.2728V8.12462H52.4714V6.74438Z" fill="#0850FD"/>
<path d="M53.2726 8.12207H54.0739V9.5023H53.2726V8.12207Z" fill="#0850FD"/>
<path d="M54.0736 6.74438H54.8749V8.12462H54.0736V6.74438Z" fill="#0850FD"/>
<path d="M54.8763 8.12207H55.6777V9.5023H54.8763V8.12207Z" fill="#0850FD"/>
<path d="M55.6775 6.74438H56.4788V8.12462H55.6775V6.74438Z" fill="#0850FD"/>
<path d="M56.4785 8.12207H57.2799V9.5023H56.4785V8.12207Z" fill="#0850FD"/>
<path d="M57.2795 6.74438H58.0809V8.12462H57.2795V6.74438Z" fill="#0850FD"/>
<path d="M58.0858 8.12207H58.8872V9.5023H58.0858V8.12207Z" fill="#0850FD"/>
<path d="M58.8834 6.74438H59.6882V8.1219H58.8834V6.74438Z" fill="#0850FD"/>
<path d="M48.6194 52.0277C47.3391 52.0277 46.1113 51.5189 45.2058 50.6135C44.3004 49.7081 43.7922 48.4802 43.7922 47.1999C43.7922 45.9197 44.3004 44.6919 45.2058 43.7864C46.1112 42.8816 47.3391 42.3728 48.6194 42.3728C49.8996 42.3728 51.1274 42.8816 52.0329 43.7864C52.9383 44.6918 53.4465 45.9196 53.4465 47.1999C53.4451 48.4802 52.9363 49.7067 52.0309 50.6114C51.1262 51.5168 49.899 52.0257 48.6194 52.0277L48.6194 52.0277ZM48.6194 45.1341C47.7833 45.1341 47.0303 45.6375 46.7106 46.4095C46.3909 47.1816 46.567 48.07 47.1582 48.6612C47.7493 49.2524 48.6377 49.4292 49.4099 49.1088C50.1819 48.7891 50.6853 48.0361 50.6853 47.2C50.684 46.0599 49.7595 45.1356 48.6195 45.1342L48.6194 45.1341Z" fill="#0850FD"/>
<path d="M54.2791 17.0021H42.9762C42.2129 17.0021 41.5946 16.3844 41.5925 15.6212V9.04185C41.5946 8.27929 42.2129 7.66162 42.9762 7.66162H54.2948C55.0574 7.66162 55.6764 8.27929 55.6784 9.04185V15.6212C55.6771 15.9906 55.5295 16.3443 55.2662 16.6035C55.0036 16.8626 54.6485 17.0062 54.2792 17.0021H54.2791ZM44.3414 14.241H52.8991V10.4228H44.3414V14.241Z" fill="#0850FD"/>
<path d="M56.994 10.4229H40.2509C38.9271 10.4216 37.6577 9.89575 36.7217 8.95972C35.7857 8.0237 35.2598 6.75436 35.2592 5.43052V4.99516C35.2598 3.67071 35.7857 2.40129 36.7217 1.46526C37.6577 0.528562 38.927 0.00137574 40.2509 0H56.994C58.317 0.00136041 59.5864 0.527865 60.5218 1.46389C61.4578 2.39991 61.9843 3.66855 61.9857 4.9917V5.42774C61.9857 6.75219 61.4598 8.02161 60.5238 8.95815C59.5878 9.8947 58.3184 10.4214 56.9939 10.4227L56.994 10.4229ZM40.2509 2.76408C39.0203 2.76748 38.0231 3.76473 38.0203 4.99521V5.43125V5.43057C38.0216 6.66182 39.0196 7.65979 40.2509 7.6617H56.994C58.2252 7.65966 59.2232 6.66173 59.2246 5.43057V4.99521C59.2212 3.76464 58.2246 2.76739 56.994 2.76408L40.2509 2.76408Z" fill="#0850FD"/>
<path d="M73.9539 29.7286C73.3961 29.728 72.8941 29.3919 72.6805 28.8763C72.4669 28.3613 72.5845 27.7682 72.9791 27.3729L74.762 25.5934H74.7613C75.4286 24.9002 75.6817 23.9063 75.4266 22.9784C75.1708 22.0506 74.4456 21.3261 73.5178 21.0717C72.5899 20.8166 71.5961 21.0703 70.9035 21.7383L69.1267 23.5179C68.5873 24.0574 67.7125 24.0574 67.173 23.5179C66.6336 22.9785 66.6336 22.1037 67.173 21.5642L68.9526 19.7846H68.9533C69.9818 18.7554 71.3777 18.1772 72.8327 18.1765C74.2884 18.1765 75.6843 18.754 76.7135 19.7833C77.7427 20.8118 78.3209 22.2077 78.3216 23.6634C78.3216 25.1184 77.7441 26.5143 76.7148 27.5435L74.932 29.323V29.3237C74.6735 29.5843 74.3211 29.7298 73.9538 29.7285L73.9539 29.7286Z" fill="#0850FD"/>
<path d="M48.9729 33.7877C48.2104 33.7877 47.592 33.1694 47.592 32.4068V28.2716C47.592 27.509 48.2104 26.8914 48.9729 26.8914C49.7348 26.8914 50.3532 27.509 50.3532 28.2716V32.4068C50.3532 32.7735 50.2076 33.1245 49.9491 33.383C49.6899 33.6422 49.3389 33.7877 48.9729 33.7877Z" fill="#0850FD"/>
<path d="M59.3797 38.2478C58.8219 38.2471 58.3192 37.9104 58.1063 37.3954C57.8927 36.8798 58.0104 36.2866 58.4043 35.8921L61.3301 32.9663C61.5865 32.6983 61.9402 32.5452 62.3116 32.5411C62.6831 32.5364 63.0402 32.6819 63.3028 32.9445C63.5653 33.2064 63.7109 33.5635 63.7075 33.9343C63.7041 34.3057 63.5511 34.6594 63.2837 34.9166L60.3579 37.8423C60.0994 38.1029 59.7471 38.2491 59.3797 38.2478H59.3797Z" fill="#0850FD"/>
<path d="M67.7283 48.7607H63.5863C62.8237 48.7607 62.2061 48.1423 62.2061 47.3804C62.2061 46.6179 62.8237 45.9995 63.5863 45.9995H67.7283C68.4902 45.9995 69.1085 46.6179 69.1085 47.3804C69.1085 48.1423 68.4902 48.7607 67.7283 48.7607Z" fill="#0850FD"/>
<path d="M62.0564 62.0879C61.6904 62.0893 61.3387 61.943 61.0816 61.6825L58.1558 58.7602C57.6164 58.2207 57.6164 57.3459 58.1558 56.8064C58.6953 56.267 59.57 56.267 60.1095 56.8064L63.0318 59.7322C63.291 59.9907 63.4366 60.3417 63.4366 60.7077C63.4366 61.0737 63.291 61.424 63.0318 61.6825C62.7747 61.9437 62.423 62.09 62.0564 62.0879L62.0564 62.0879Z" fill="#0850FD"/>
<path d="M48.6195 67.5091C47.8603 67.5057 47.2454 66.8908 47.2419 66.1316V61.9903C47.2419 61.2277 47.8603 60.6094 48.6222 60.6094C49.3847 60.6094 50.0031 61.2277 50.0031 61.9903V66.1316C49.9997 66.8935 49.3813 67.5091 48.6195 67.5091V67.5091Z" fill="#0850FD"/>
<path d="M74.0967 47.2003C74.0892 40.4454 71.4029 33.9694 66.6263 29.1938C61.8502 24.417 55.3743 21.7309 48.6198 21.7234H19.5256C18.7637 21.7234 18.1453 22.3417 18.1453 23.1043C18.1453 23.8669 18.7637 24.4845 19.5256 24.4845H48.6198C54.6896 24.4145 60.5351 26.7763 64.8526 31.0442C69.1695 35.3114 71.5993 41.1289 71.5993 47.1995C71.5993 53.2702 69.1695 59.0876 64.8526 63.3548C60.5351 67.6228 54.6897 69.9845 48.6198 69.9145H19.5256C18.7637 69.9145 18.1453 70.5322 18.1453 71.2947C18.1453 72.0573 18.7637 72.6756 19.5256 72.6756H48.6198C55.374 72.6682 61.8493 69.9818 66.6263 65.2064C71.4023 60.4304 74.0892 53.9552 74.0974 47.2017L74.0967 47.2003Z" fill="#0850FD"/>
<path d="M48.6194 14.4003H34.1866C33.424 14.4003 32.8057 15.0186 32.8057 15.7805C32.8057 16.5431 33.424 17.1614 34.1866 17.1614H48.6194C56.5334 17.241 64.0965 20.4409 69.6647 26.0652C75.2333 31.6902 78.357 39.2845 78.357 47.1993C78.357 55.1142 75.2332 62.7084 69.6647 68.3334C64.0968 73.9577 56.5339 77.1576 48.6194 77.2372C47.8569 77.2372 47.2392 77.8556 47.2392 78.6181C47.2392 79.38 47.8569 79.9984 48.6194 79.9984C54.4125 80.0541 60.117 78.5746 65.1528 75.7101C70.1887 72.8456 74.3757 68.6987 77.2886 63.6907C80.2015 58.6826 81.736 52.993 81.736 47.1994C81.736 41.4058 80.2014 35.7162 77.2886 30.7082C74.3757 25.7001 70.1887 21.5534 65.1528 18.6887C60.117 15.8242 54.4123 14.3447 48.6194 14.4004V14.4003Z" fill="#0850FD"/>
<path d="M33.5769 47.0018C33.5769 46.2392 32.9585 45.6216 32.196 45.6216H1.64415C0.881588 45.6216 0.263916 46.2392 0.263916 47.0018C0.263916 47.7644 0.881588 48.382 1.64415 48.382H32.196C32.9585 48.382 33.5769 47.7644 33.5769 47.0018Z" fill="#0850FD"/>
<path d="M7.50927 36.4331H35.1285C35.8911 36.4331 36.5087 35.8154 36.5087 35.0528C36.5087 34.2903 35.8911 33.6726 35.1285 33.6726H7.50927C6.74671 33.6726 6.12836 34.2903 6.12836 35.0528C6.12836 35.8154 6.74671 36.4331 7.50927 36.4331Z" fill="#0850FD"/>
<path d="M36.5077 59.1465C36.5077 58.384 35.89 57.7656 35.1274 57.7656H7.50821C6.77014 57.8003 6.18921 58.4091 6.18921 59.1479C6.18921 59.8866 6.77014 60.4955 7.50821 60.5302H35.1274C35.8907 60.5281 36.5077 59.9091 36.5077 59.1465Z" fill="#0850FD"/>
<path d="M51.0574 46.1433C50.4914 46.144 49.9826 45.7998 49.7731 45.274C49.5636 44.7488 49.6956 44.1488 50.1064 43.7597L54.6103 39.4932H54.611C55.1647 38.9694 56.0382 38.9932 56.5626 39.5469C57.0871 40.1007 57.0633 40.9741 56.5096 41.4986L52.0057 45.7651H52.005C51.7499 46.0086 51.4105 46.144 51.0574 46.1433V46.1433Z" fill="#0850FD"/>
<path d="M44.1665 10.0049H54.2811V14.6918H44.1665V10.0049Z" fill="#0850FD"/>
</svg>
