<svg width="80" height="80" viewBox="0 0 80 80" fill="none" xmlns="http://www.w3.org/2000/svg">
<path d="M40 0C17.9683 0 0 17.9683 0 40C0 62.0317 17.911 80 40 80C62.089 80 80 62.089 80 40C80 17.911 62.0317 0 40 0ZM40 76.5655C19.8584 76.5655 3.4345 60.1423 3.4345 40C3.4345 19.8577 19.8577 3.4345 40 3.4345C60.1423 3.4345 76.5655 19.8577 76.5655 40C76.5655 60.1423 60.1423 76.5655 40 76.5655Z" fill="#0850FD"/>
<path d="M63.9201 22.6603H56.481V20.1423V14.8208V14.1338C56.481 13.1611 55.7368 12.4168 54.7639 12.4168L25.1231 12.4174C24.2076 12.4174 23.4634 13.1044 23.406 14.0198V14.1344V14.5349V18.1975V22.661L15.853 22.6603C15.6238 22.6603 15.3952 22.7749 15.2233 22.9462C15.0514 23.1181 14.9941 23.3466 14.9941 23.5758C15.166 27.1238 15.5665 29.7562 16.31 32.1595C17.1109 34.6775 18.3129 36.6802 20.0298 38.3399C21.403 39.6558 23.0627 40.5146 25.1229 41.0297C25.7525 42.3456 26.5534 43.6048 27.5835 44.7495C28.0986 45.3791 28.6136 45.9514 29.1859 46.5804C29.9868 47.4958 30.7883 48.4112 31.5892 49.3268C33.4201 51.5015 34.279 53.6183 34.3356 55.9076V56.1368C34.2784 56.1368 34.2211 56.1941 34.0498 56.2514L33.3629 56.4806C31.7032 57.053 30.0441 57.568 28.3845 58.2544C26.0385 59.2271 24.0356 60.543 22.4905 62.2028C21.8609 62.8897 21.1173 63.8052 20.7168 65.1212C20.5449 65.6362 20.6595 66.2085 21.0026 66.609C21.3458 67.0667 21.8608 67.2959 22.3758 67.2959H57.5689C58.1412 67.2959 58.6563 67.0101 58.9421 66.5517C59.2852 66.0939 59.3425 65.5216 59.1713 65.0065L59.114 64.8919C59.0567 64.7773 58.9994 64.6627 58.9994 64.5488C58.0266 62.4313 56.367 61.0582 54.9937 60.1426C52.0181 58.0824 48.642 56.9951 45.7809 56.1942C45.6663 56.1942 45.609 56.1369 45.5517 56.1369V55.9077C45.609 54.0195 46.124 52.3597 47.1541 50.9293C48.47 49.2122 49.9005 47.3813 51.5603 45.6078C52.8189 44.1773 53.8489 42.6894 54.6505 41.0298C58.3702 40.1143 61.0022 37.8249 62.6619 34.1058C63.5201 32.2176 64.0351 30.1574 64.3217 27.8688C64.4363 26.896 64.5509 25.9232 64.6075 24.9504C64.6648 24.4926 64.6648 24.0922 64.7221 23.6345C64.7221 23.4053 64.6648 23.1767 64.4929 22.9475C64.3789 22.775 64.1497 22.6604 63.9212 22.6604L63.9201 22.6603ZM21.2308 37.1379C19.743 35.7074 18.6557 33.9331 17.9693 31.7017C17.3397 29.6415 16.9392 27.3529 16.7673 24.4345H23.4055V33.0182C23.4055 35.1357 23.7487 37.1386 24.321 39.0268C23.119 38.5684 22.089 37.9388 21.2308 37.1379H21.2308ZM49.0423 43.2603C47.3826 45.0912 45.8375 46.9801 44.4643 48.8112C42.9765 50.814 42.2323 53.1027 42.1757 55.7351C42.1184 57.738 42.9766 58.8827 44.9221 59.4549C47.5545 60.1991 50.5303 61.172 53.1054 62.9455C53.5631 63.2314 53.9635 63.5179 54.25 63.861H25.6377C26.725 62.8883 28.0983 62.0301 29.6434 61.4004C31.1885 60.7708 32.8483 60.1984 34.3927 59.6833L35.0796 59.4541C36.9105 58.8245 37.7121 57.6804 37.7121 55.7915C37.6548 52.7013 36.5101 49.8975 34.1641 47.0938C33.3632 46.121 32.5044 45.2056 31.7035 44.2901C31.1884 43.7177 30.6734 43.0881 30.1583 42.5163C27.8697 39.8839 26.7824 36.737 26.7824 32.9598V18.1963V15.8503H52.9904V20.1419V32.5022C53.1044 36.737 51.7305 40.2277 49.0413 43.26L49.0423 43.2603ZM62.9477 24.7778C62.8331 25.7506 62.7758 26.666 62.6619 27.6389C62.3761 29.7564 61.861 31.6446 61.1168 33.4181C59.9148 36.2219 58.0839 38.0535 55.5086 38.969C56.1955 36.9661 56.5387 34.7914 56.4814 32.5026V24.3767H63.0049C62.9476 24.4913 62.9476 24.6059 62.9476 24.7778L62.9477 24.7778Z" fill="#0850FD"/>
<path d="M36.8521 33.7056L33.6473 31.417L36.8521 29.1283C37.0813 28.9564 37.138 28.6706 37.024 28.4414L36.6236 27.5259C36.5663 27.354 36.3944 27.2401 36.2232 27.2401C36.0513 27.1828 35.88 27.2401 35.7654 27.3547L31.3593 30.6162C31.1874 30.7308 31.1301 30.902 31.1301 31.0739V31.9321C31.1301 32.104 31.2447 32.2752 31.3593 32.3898L35.7654 35.5947C35.88 35.652 35.9946 35.7093 36.1086 35.7093H36.2232C36.3951 35.652 36.509 35.5374 36.6236 35.4234L37.0813 34.5653C37.1959 34.1635 37.0813 33.877 36.8521 33.7058V33.7056Z" fill="#0850FD"/>
<path d="M42.6893 22.2033C42.5747 22.0314 42.4028 21.9741 42.2315 21.9741H41.3161C41.0302 21.9741 40.801 22.146 40.7437 22.4319L37.0239 38.9124C36.9666 39.0843 37.0239 39.2555 37.1385 39.3701C37.2531 39.4847 37.4244 39.5993 37.5963 39.5993H38.5118C38.7976 39.5993 39.0268 39.4274 39.0841 39.1416L42.8039 22.6611C42.8605 22.4892 42.8032 22.3179 42.6893 22.2033Z" fill="#0850FD"/>
<path d="M48.4691 30.5004L44.0629 27.2389C43.9483 27.1243 43.7764 27.1243 43.6052 27.1243C43.4333 27.1816 43.3193 27.2962 43.2047 27.4101L42.8043 28.3256C42.6897 28.5548 42.747 28.8407 42.9762 29.0126L46.181 31.3012L42.9762 33.5899C42.747 33.7618 42.6903 34.0476 42.8043 34.3341L43.262 35.1923C43.3193 35.3642 43.4912 35.4781 43.6624 35.4781H43.777C43.8916 35.4781 44.0062 35.4208 44.1202 35.3635L48.5264 32.1587C48.6983 32.0441 48.7556 31.8728 48.7556 31.7009V30.8428C48.7549 30.7868 48.641 30.6149 48.4691 30.5003L48.4691 30.5004Z" fill="#0850FD"/>
</svg>
