<svg width="88" height="88" viewBox="0 0 88 88" fill="none" xmlns="http://www.w3.org/2000/svg">
<g filter="url(#filter0_d_10_233)">
<path d="M75.9772 39.4502H19.3747V36.9858C19.3747 36.4589 18.9467 36.0319 18.4185 36.0319C17.8909 36.0319 17.4624 36.4589 17.4624 36.9858V39.4502H12.0236C11.4954 39.4502 11.0674 39.8772 11.0674 40.4042C11.0674 40.9311 11.4954 41.3581 12.0236 41.3581H17.4624V43.8225C17.4624 44.3494 17.8909 44.7764 18.4185 44.7764C18.9467 44.7764 19.3747 44.3494 19.3747 43.8225V41.3581H75.9772C76.5053 41.3581 76.9333 40.9311 76.9333 40.4042C76.9333 39.8772 76.5053 39.4502 75.9772 39.4502Z" fill="#0850FD"/>
<path d="M38.8624 31.4595C39.2784 31.6986 39.7907 31.6986 40.2067 31.4595L44.127 29.2018C44.5846 28.9384 44.7411 28.3552 44.477 27.8987C44.2135 27.4427 43.6284 27.286 43.1708 27.5495L40.102 29.3171V15.8465L51.7947 22.5815L50.4919 23.3322H50.4924C50.271 23.4577 50.1088 23.6661 50.0422 23.9114C49.9751 24.1567 50.0092 24.4184 50.1367 24.6382C50.2642 24.8585 50.4742 25.0186 50.7207 25.0834C50.9665 25.1487 51.2289 25.1129 51.4486 24.9846L53.6034 23.7438L53.6028 23.7433C54.0189 23.5037 54.275 23.0607 54.275 22.5815C54.275 22.1022 54.0189 21.6593 53.6028 21.4197L40.2073 13.7035C39.7912 13.4639 39.279 13.4639 38.8629 13.7035C38.4469 13.9431 38.1908 14.386 38.1908 14.8653V30.2972C38.1913 30.7764 38.4469 31.2187 38.8624 31.4589L38.8624 31.4595Z" fill="#0850FD"/>
<path d="M47.6803 24.9515L46.3474 25.7192C46.1282 25.8459 45.9677 26.0543 45.9023 26.2984C45.8362 26.5432 45.871 26.8032 45.9973 27.0224C46.2614 27.4789 46.8465 27.6351 47.3035 27.3716L48.6365 26.6039C49.0901 26.3387 49.2437 25.7584 48.9808 25.3042C48.7184 24.8499 48.1373 24.6926 47.6803 24.9515H47.6803Z" fill="#0850FD"/>
<path d="M79.1608 0H8.83896C7.5561 0.00170353 6.32618 0.510477 5.41889 1.4156C4.51166 2.32073 4.0017 3.54781 4 4.82833V49.4596C4.00114 50.7389 4.51053 51.9654 5.41662 52.87C6.32271 53.7751 7.55145 54.285 8.83378 54.2873H9.13942V59.0207C9.13942 61.6009 10.519 63.9852 12.7587 65.2753C14.9983 66.5654 17.758 66.5654 19.9977 65.2753C22.2375 63.9852 23.6176 61.6009 23.6176 59.0207V54.2873H36.2674V59.0207H36.2669C36.2669 61.6009 37.6471 63.9852 39.8867 65.2753C42.1263 66.5654 44.886 66.5654 47.1258 65.2753C49.3655 63.9852 50.745 61.6009 50.745 59.0207V54.2873H62.4069V58.2372C62.4052 60.8066 63.7712 63.1829 65.9954 64.4788C68.2191 65.7746 70.9652 65.7939 73.2071 64.5294C75.449 63.2648 76.8485 60.9077 76.8827 58.3389C78.0387 58.2616 79.1241 57.7568 79.9254 56.9221C80.7268 56.088 81.1867 54.9847 81.2146 53.8292C82.0466 53.4397 82.7501 52.8219 83.2436 52.0485C83.7365 51.2745 83.9989 50.3768 84 49.4597V4.82841C83.9983 3.54795 83.4883 2.32087 82.5811 1.41569C81.6739 0.510558 80.4439 0.00178221 79.161 8.14454e-05L79.1608 0ZM21.7045 59.0209C21.7045 60.9197 20.6891 62.6744 19.0409 63.6232C17.3932 64.5726 15.3625 64.5726 13.7147 63.6232C12.0666 62.6743 11.0512 60.9197 11.0512 59.0209V56.376H12.0056C13.0273 56.3749 14.0067 55.9694 14.729 55.2489C15.4512 54.5283 15.8576 53.551 15.8587 52.5319C15.8593 52.328 16.0249 52.1628 16.2287 52.1628H19.1239C19.2503 52.8226 19.5588 53.4341 20.0146 53.9282C20.4705 54.4222 21.0556 54.7788 21.7045 54.9588L21.7045 59.0209ZM16.2287 50.2547C15.6237 50.2553 15.0437 50.4955 14.6158 50.9225C14.1878 51.3495 13.9476 51.9281 13.9464 52.5317C13.9453 53.6009 13.0774 54.4668 12.0057 54.4679H11.0512V53.0665C11.0524 51.6572 11.6141 50.3063 12.613 49.3103C13.6113 48.3138 14.9654 47.7533 16.378 47.7521C16.7371 47.7521 17.3819 47.885 18.1491 48.1178H18.1485C18.7547 48.3018 19.3842 48.3961 20.017 48.3966C20.597 48.3972 21.1627 48.5761 21.6368 48.9082C22.1115 49.2404 22.4717 49.7106 22.6692 50.2546L16.2287 50.2547ZM21.7045 52.882C21.4432 52.702 21.2378 52.4528 21.1114 52.1626H21.7045V52.882ZM48.8328 59.0208C48.8328 60.9195 47.8174 62.6742 46.1692 63.623C44.521 64.5724 42.4908 64.5724 40.8425 63.623C39.1943 62.6742 38.1795 60.9195 38.1795 59.0208V52.9405L41.4527 52.4834C42.2592 52.3709 43.0793 52.5521 43.7634 52.9933C45.1697 53.8967 46.9193 54.088 48.4885 53.5106L48.8328 53.3834L48.8328 59.0208ZM38.1795 51.0138V47.7511L43.5056 47.7517C44.6337 47.7534 45.7315 48.1111 46.6428 48.7743C47.554 49.4376 48.2312 50.3716 48.5772 51.4425L47.8225 51.7219C46.8197 52.091 45.7008 51.9683 44.8021 51.3914C43.7321 50.7009 42.4493 50.4181 41.1874 50.5942L38.1795 51.0138ZM74.9722 58.2371V58.2377C74.9722 60.136 73.9569 61.8905 72.3087 62.8399C70.6605 63.7888 68.6303 63.7888 66.9819 62.8399C65.3337 61.8905 64.3189 60.1358 64.3189 58.2377V56.2139H64.731C67.3685 56.2065 69.9261 55.3139 71.9939 53.6802C72.6456 54.8675 73.6638 56.0549 74.9723 56.2655L74.9722 58.2371ZM74.9722 54.2673C74.1259 53.8307 73.4093 52.2856 73.2301 51.7854C73.1202 51.4759 72.859 51.2448 72.538 51.1727C72.217 51.1012 71.8818 51.1988 71.6501 51.4316C69.8157 53.2651 67.3274 54.2992 64.731 54.3059H64.3189V53.8494C64.3189 51.9506 65.3337 50.1965 66.9819 49.2472C68.6301 48.2978 70.6603 48.2978 72.3087 49.2472C73.957 50.1966 74.9723 51.9506 74.9723 53.8494L74.9722 54.2673ZM76.8846 56.4234V53.8494C76.8852 52.8716 76.686 51.904 76.2984 51.0058H76.579C77.5158 51.0058 78.3871 51.4862 78.8851 52.2777C79.3837 53.0687 79.4395 54.0602 79.0331 54.9023C78.6267 55.7444 77.8151 56.319 76.8846 56.4241V56.4234ZM82.0866 49.4596C82.0866 50.4186 81.6131 51.3159 80.8214 51.8592C80.4583 51.0382 79.8641 50.3403 79.1111 49.8503C78.3576 49.3603 77.4782 49.0985 76.579 49.0974H75.0906C73.9039 47.7414 72.2517 46.8766 70.4589 46.6733C68.6654 46.47 66.8613 46.9424 65.3997 47.998C63.9375 49.0536 62.9245 50.6169 62.5579 52.3794H50.7105C50.5375 50.5919 49.7037 48.9327 48.3719 47.7244C47.0401 46.5167 45.3053 45.846 43.5051 45.8437H37.2223C36.6941 45.8437 36.2661 46.2707 36.2661 46.7977V52.38H23.6168V52.1625H23.7921C24.3203 52.1625 24.7483 51.7355 24.7483 51.2085C24.7466 49.957 24.248 48.7572 23.3613 47.8725C22.474 46.9873 21.2713 46.4899 20.017 46.4882C19.5724 46.4876 19.1297 46.4212 18.7039 46.2917C17.7233 45.9947 16.9406 45.8443 16.3772 45.8443C14.5775 45.8465 12.8428 46.5166 11.5105 47.725C10.1787 48.9333 9.34547 50.5926 9.17238 52.38H8.83828C8.06253 52.3794 7.3186 52.0711 6.77004 51.5237C6.22147 50.9763 5.91233 50.2342 5.91176 49.4597V4.8284C5.9129 4.05388 6.22138 3.31167 6.77004 2.76437C7.31869 2.21707 8.06258 1.90922 8.83828 1.90808H79.1601C79.9358 1.90922 80.6797 2.21698 81.2283 2.76437C81.7769 3.31175 82.0854 4.05391 82.0866 4.8284L82.0866 49.4596Z" fill="#0850FD"/>
<path d="M47.3641 67.1552H39.6476C38.1267 67.1569 36.6687 67.7605 35.593 68.8337C34.5173 69.9064 33.9129 71.3618 33.9106 72.8789V79.0331C33.9106 79.56 34.3391 79.9871 34.8667 79.9871H52.1456C52.6737 79.9871 53.1017 79.56 53.1017 79.0331V72.8789C53.1 71.3616 52.495 69.9064 51.4193 68.8337C50.3436 67.7605 48.8854 67.157 47.3647 67.1552H47.3641ZM51.1888 78.0791H35.823V72.8789C35.8248 71.8671 36.2277 70.8972 36.9448 70.1823C37.662 69.4668 38.6341 69.0642 39.6478 69.0631H47.3643C48.3779 69.0642 49.3507 69.4668 50.0672 70.1817C50.7844 70.8972 51.1879 71.8671 51.189 72.879L51.1888 78.0791Z" fill="#0850FD"/>
<path d="M48.3709 72.2968H46.6476C46.1194 72.2968 45.6914 72.7243 45.6914 73.2507C45.6914 73.7777 46.1194 74.2047 46.6476 74.2047H48.3709C48.8991 74.2047 49.3271 73.7777 49.3271 73.2507C49.3271 72.7243 48.8991 72.2968 48.3709 72.2968Z" fill="#0850FD"/>
<path d="M20.2358 67.1552H12.5198C10.9986 67.1569 9.54037 67.7605 8.46523 68.8337C7.38954 69.9064 6.78455 71.3618 6.78281 72.8789V79.0331C6.78281 79.56 7.21081 79.9871 7.73898 79.9871H25.0164C25.5445 79.9871 25.9725 79.56 25.9725 79.0331V72.8789C25.9708 71.3616 25.3658 69.9064 24.2907 68.8337C23.215 67.7605 21.7568 67.157 20.2355 67.1552H20.2358ZM24.0605 78.0791H8.69471V72.8789C8.69585 71.8671 9.09937 70.8972 9.81594 70.1817C10.5331 69.4668 11.5052 69.0642 12.5194 69.0631H20.2354C21.2496 69.0642 22.2218 69.4668 22.9389 70.1823C23.656 70.8972 24.059 71.867 24.0601 72.8789L24.0605 78.0791Z" fill="#0850FD"/>
<path d="M21.2426 72.2968H19.5192C18.9911 72.2968 18.5631 72.7243 18.5631 73.2507C18.5631 73.7777 18.9911 74.2047 19.5192 74.2047H21.2426C21.7708 74.2047 22.1988 73.7777 22.1988 73.2507C22.1988 72.7243 21.7708 72.2968 21.2426 72.2968Z" fill="#0850FD"/>
<path d="M73.5046 66.3732H65.7886C64.2674 66.3749 62.8092 66.9785 61.734 68.0517C60.6583 69.1243 60.0534 70.5797 60.0516 72.0969V79.046C60.0516 79.573 60.4796 80 61.0078 80H78.2852C78.8133 80 79.2413 79.573 79.2413 79.046V72.0969C79.2396 70.5796 78.6346 69.1243 77.5589 68.0517C76.4838 66.9785 75.0256 66.3749 73.5043 66.3732H73.5046ZM77.3293 78.092H61.9635V72.0969C61.9647 71.085 62.3682 70.1151 63.0847 69.3997C63.8019 68.6848 64.774 68.2822 65.7882 68.281H73.5042C74.5184 68.2822 75.4906 68.6848 76.2077 69.3997C76.9248 70.1151 77.3278 71.085 77.3289 72.0969L77.3293 78.092Z" fill="#0850FD"/>
<path d="M74.5114 71.5147H72.7874C72.2593 71.5147 71.8313 71.9417 71.8313 72.4687C71.8313 72.995 72.2593 73.4226 72.7874 73.4226H74.5114C75.0396 73.4226 75.4676 72.995 75.4676 72.4687C75.4676 71.9417 75.0396 71.5147 74.5114 71.5147Z" fill="#0850FD"/>
</g>
<defs>
<filter id="filter0_d_10_233" x="0" y="0" width="88" height="88" filterUnits="userSpaceOnUse" color-interpolation-filters="sRGB">
<feFlood flood-opacity="0" result="BackgroundImageFix"/>
<feColorMatrix in="SourceAlpha" type="matrix" values="0 0 0 0 0 0 0 0 0 0 0 0 0 0 0 0 0 0 127 0" result="hardAlpha"/>
<feOffset dy="4"/>
<feGaussianBlur stdDeviation="2"/>
<feComposite in2="hardAlpha" operator="out"/>
<feColorMatrix type="matrix" values="0 0 0 0 0 0 0 0 0 0 0 0 0 0 0 0 0 0 0.25 0"/>
<feBlend mode="normal" in2="BackgroundImageFix" result="effect1_dropShadow_10_233"/>
<feBlend mode="normal" in="SourceGraphic" in2="effect1_dropShadow_10_233" result="shape"/>
</filter>
</defs>
</svg>
