<svg width="180" height="124" viewBox="0 0 180 124" fill="none" xmlns="http://www.w3.org/2000/svg">
<path d="M9.58008 105.914V107.535H4.42383V111.031C4.61914 110.953 4.84049 110.888 5.08789 110.836C5.34831 110.784 5.68034 110.758 6.08398 110.758C6.81315 110.758 7.47721 110.934 8.07617 111.285C8.68815 111.637 9.17643 112.112 9.54102 112.711C9.91862 113.31 10.1074 113.993 10.1074 114.762C10.1074 115.647 9.89909 116.435 9.48242 117.125C9.06576 117.802 8.49284 118.336 7.76367 118.727C7.03451 119.104 6.20768 119.293 5.2832 119.293C4.81445 119.293 4.35221 119.221 3.89648 119.078C3.44076 118.948 3.0306 118.779 2.66602 118.57C2.30143 118.362 2.00195 118.154 1.76758 117.945V116.012C2.01497 116.207 2.31445 116.441 2.66602 116.715C3.01758 116.975 3.41471 117.21 3.85742 117.418C4.30013 117.613 4.77539 117.711 5.2832 117.711C5.86914 117.711 6.40299 117.594 6.88477 117.359C7.36654 117.125 7.74414 116.799 8.01758 116.383C8.30404 115.966 8.44727 115.478 8.44727 114.918C8.44727 114.384 8.29753 113.928 7.99805 113.551C7.69857 113.16 7.30143 112.861 6.80664 112.652C6.31185 112.431 5.77148 112.32 5.18555 112.32C4.69076 112.32 4.23503 112.385 3.81836 112.516C3.41471 112.633 3.0306 112.763 2.66602 112.906V105.914H9.58008ZM14.209 108.805C14.5866 108.805 14.9056 108.941 15.166 109.215C15.4395 109.475 15.5762 109.794 15.5762 110.172C15.5762 110.536 15.4395 110.855 15.166 111.129C14.9056 111.402 14.5866 111.539 14.209 111.539C13.8314 111.539 13.5059 111.402 13.2324 111.129C12.972 110.855 12.8418 110.536 12.8418 110.172C12.8418 109.794 12.972 109.475 13.2324 109.215C13.5059 108.941 13.8314 108.805 14.209 108.805ZM14.209 116.617C14.5866 116.617 14.9056 116.754 15.166 117.027C15.4395 117.288 15.5762 117.607 15.5762 117.984C15.5762 118.349 15.4395 118.668 15.166 118.941C14.9056 119.215 14.5866 119.352 14.209 119.352C13.8314 119.352 13.5059 119.215 13.2324 118.941C12.972 118.668 12.8418 118.349 12.8418 117.984C12.8418 117.607 12.972 117.288 13.2324 117.027C13.5059 116.754 13.8314 116.617 14.209 116.617ZM22.5684 105.621C23.4147 105.621 24.1439 105.816 24.7559 106.207C25.3809 106.598 25.8952 107.125 26.2988 107.789C26.7025 108.44 27.002 109.169 27.1973 109.977C27.4056 110.784 27.5098 111.611 27.5098 112.457C27.5098 113.29 27.4056 114.117 27.1973 114.938C27.002 115.745 26.7025 116.48 26.2988 117.145C25.8952 117.796 25.3809 118.316 24.7559 118.707C24.1439 119.098 23.4147 119.293 22.5684 119.293C21.735 119.293 21.0059 119.098 20.3809 118.707C19.7559 118.316 19.2415 117.796 18.8379 117.145C18.4342 116.48 18.1283 115.745 17.9199 114.938C17.7246 114.117 17.627 113.29 17.627 112.457C17.627 111.611 17.7246 110.784 17.9199 109.977C18.1283 109.169 18.4342 108.44 18.8379 107.789C19.2415 107.125 19.7559 106.598 20.3809 106.207C21.0059 105.816 21.735 105.621 22.5684 105.621ZM22.5684 107.34C22.0345 107.34 21.5592 107.49 21.1426 107.789C20.7389 108.076 20.4004 108.466 20.127 108.961C19.8535 109.443 19.6452 109.99 19.502 110.602C19.3587 111.201 19.2871 111.819 19.2871 112.457C19.2871 113.095 19.3587 113.72 19.502 114.332C19.6452 114.931 19.8535 115.478 20.127 115.973C20.4004 116.454 20.7389 116.845 21.1426 117.145C21.5592 117.431 22.0345 117.574 22.5684 117.574C23.1022 117.574 23.571 117.431 23.9746 117.145C24.3913 116.845 24.7363 116.454 25.0098 115.973C25.2832 115.478 25.4915 114.931 25.6348 114.332C25.778 113.72 25.8496 113.095 25.8496 112.457C25.8496 111.819 25.778 111.201 25.6348 110.602C25.4915 109.99 25.2832 109.443 25.0098 108.961C24.7363 108.466 24.3913 108.076 23.9746 107.789C23.571 107.49 23.1022 107.34 22.5684 107.34ZM33.3105 105.621C34.1569 105.621 34.8861 105.816 35.498 106.207C36.123 106.598 36.6374 107.125 37.041 107.789C37.4447 108.44 37.7441 109.169 37.9395 109.977C38.1478 110.784 38.252 111.611 38.252 112.457C38.252 113.29 38.1478 114.117 37.9395 114.938C37.7441 115.745 37.4447 116.48 37.041 117.145C36.6374 117.796 36.123 118.316 35.498 118.707C34.8861 119.098 34.1569 119.293 33.3105 119.293C32.4772 119.293 31.748 119.098 31.123 118.707C30.498 118.316 29.9837 117.796 29.5801 117.145C29.1764 116.48 28.8704 115.745 28.6621 114.938C28.4668 114.117 28.3691 113.29 28.3691 112.457C28.3691 111.611 28.4668 110.784 28.6621 109.977C28.8704 109.169 29.1764 108.44 29.5801 107.789C29.9837 107.125 30.498 106.598 31.123 106.207C31.748 105.816 32.4772 105.621 33.3105 105.621ZM33.3105 107.34C32.7767 107.34 32.3014 107.49 31.8848 107.789C31.4811 108.076 31.1426 108.466 30.8691 108.961C30.5957 109.443 30.3874 109.99 30.2441 110.602C30.1009 111.201 30.0293 111.819 30.0293 112.457C30.0293 113.095 30.1009 113.72 30.2441 114.332C30.3874 114.931 30.5957 115.478 30.8691 115.973C31.1426 116.454 31.4811 116.845 31.8848 117.145C32.3014 117.431 32.7767 117.574 33.3105 117.574C33.8444 117.574 34.3132 117.431 34.7168 117.145C35.1335 116.845 35.4785 116.454 35.752 115.973C36.0254 115.478 36.2337 114.931 36.377 114.332C36.5202 113.72 36.5918 113.095 36.5918 112.457C36.5918 111.819 36.5202 111.201 36.377 110.602C36.2337 109.99 36.0254 109.443 35.752 108.961C35.4785 108.466 35.1335 108.076 34.7168 107.789C34.3132 107.49 33.8444 107.34 33.3105 107.34ZM51.8457 105.914C52.6009 105.914 53.3236 106.09 54.0137 106.441C54.7038 106.78 55.2702 107.275 55.7129 107.926C56.1686 108.564 56.3965 109.332 56.3965 110.23C56.3965 110.999 56.1816 111.708 55.752 112.359C55.3223 113.01 54.7363 113.538 53.9941 113.941C53.265 114.332 52.4512 114.527 51.5527 114.527C50.8887 114.527 50.2767 114.462 49.7168 114.332C49.1699 114.189 48.7272 114.039 48.3887 113.883V119H46.6309V105.914H51.8457ZM48.3887 107.574V112.281C48.7402 112.424 49.196 112.561 49.7559 112.691C50.3288 112.809 50.9082 112.867 51.4941 112.867C52.4837 112.867 53.2454 112.613 53.7793 112.105C54.3262 111.585 54.5996 110.96 54.5996 110.23C54.5996 109.671 54.4434 109.195 54.1309 108.805C53.8314 108.414 53.4342 108.115 52.9395 107.906C52.4447 107.685 51.9173 107.574 51.3574 107.574H48.3887ZM71.6895 105.914V119H69.9316V109.527L65.8887 113.844H65.4199L61.2793 109.527V119H59.5215V105.914H60.0684L65.6543 111.91L71.1426 105.914H71.6895ZM84.0527 106.422V109.234H86.9043V110.738H84.0527V116.461C84.0527 116.865 84.1569 117.184 84.3652 117.418C84.5736 117.652 84.8926 117.77 85.3223 117.77C85.7129 117.77 86.0384 117.724 86.2988 117.633C86.5592 117.529 86.7871 117.418 86.9824 117.301V118.609C86.722 118.818 86.4421 118.98 86.1426 119.098C85.8561 119.228 85.4655 119.293 84.9707 119.293C84.1374 119.293 83.5059 119.046 83.0762 118.551C82.6595 118.043 82.4512 117.372 82.4512 116.539V110.738H80.5762V110.27C81.2142 109.983 81.748 109.514 82.1777 108.863C82.6074 108.199 82.985 107.385 83.3105 106.422H84.0527ZM94.2285 109.039C95.2181 109.039 96.097 109.273 96.8652 109.742C97.6335 110.211 98.2324 110.836 98.6621 111.617C99.1048 112.398 99.3262 113.251 99.3262 114.176C99.3262 115.1 99.1048 115.953 98.6621 116.734C98.2324 117.503 97.6335 118.121 96.8652 118.59C96.097 119.059 95.2181 119.293 94.2285 119.293C93.2389 119.293 92.36 119.059 91.5918 118.59C90.8236 118.121 90.2181 117.503 89.7754 116.734C89.3457 115.953 89.1309 115.1 89.1309 114.176C89.1309 113.251 89.3457 112.398 89.7754 111.617C90.2181 110.836 90.8236 110.211 91.5918 109.742C92.36 109.273 93.2389 109.039 94.2285 109.039ZM94.2285 110.602C93.5384 110.602 92.9329 110.771 92.4121 111.109C91.8913 111.435 91.4876 111.871 91.2012 112.418C90.9277 112.952 90.791 113.538 90.791 114.176C90.791 114.801 90.9277 115.387 91.2012 115.934C91.4876 116.467 91.8913 116.904 92.4121 117.242C92.9329 117.568 93.5384 117.73 94.2285 117.73C94.9316 117.73 95.5371 117.568 96.0449 117.242C96.5658 116.904 96.9629 116.467 97.2363 115.934C97.5228 115.387 97.666 114.801 97.666 114.176C97.666 113.538 97.5228 112.952 97.2363 112.418C96.9629 111.871 96.5658 111.435 96.0449 111.109C95.5371 110.771 94.9316 110.602 94.2285 110.602ZM111.533 105.621C112.262 105.621 112.92 105.771 113.506 106.07C114.105 106.357 114.58 106.76 114.932 107.281C115.283 107.802 115.459 108.408 115.459 109.098C115.459 109.853 115.277 110.471 114.912 110.953C114.548 111.422 114.098 111.806 113.564 112.105C114.176 112.392 114.71 112.822 115.166 113.395C115.622 113.954 115.85 114.605 115.85 115.348C115.85 116.077 115.667 116.741 115.303 117.34C114.951 117.939 114.45 118.414 113.799 118.766C113.148 119.117 112.393 119.293 111.533 119.293C110.674 119.293 109.919 119.117 109.268 118.766C108.63 118.414 108.128 117.939 107.764 117.34C107.399 116.741 107.217 116.077 107.217 115.348C107.217 114.605 107.445 113.954 107.9 113.395C108.356 112.822 108.89 112.392 109.502 112.105C108.981 111.806 108.532 111.422 108.154 110.953C107.79 110.471 107.607 109.853 107.607 109.098C107.607 108.408 107.783 107.802 108.135 107.281C108.486 106.76 108.955 106.357 109.541 106.07C110.14 105.771 110.804 105.621 111.533 105.621ZM111.533 107.203C111.169 107.203 110.811 107.294 110.459 107.477C110.107 107.659 109.821 107.906 109.6 108.219C109.378 108.531 109.268 108.889 109.268 109.293C109.268 109.697 109.378 110.048 109.6 110.348C109.821 110.634 110.107 110.862 110.459 111.031C110.811 111.188 111.169 111.266 111.533 111.266C111.911 111.266 112.269 111.188 112.607 111.031C112.959 110.862 113.245 110.634 113.467 110.348C113.688 110.048 113.799 109.697 113.799 109.293C113.799 108.889 113.688 108.531 113.467 108.219C113.245 107.906 112.959 107.659 112.607 107.477C112.269 107.294 111.911 107.203 111.533 107.203ZM111.533 112.906C111.104 112.906 110.68 113.01 110.264 113.219C109.86 113.427 109.528 113.707 109.268 114.059C109.007 114.41 108.877 114.807 108.877 115.25C108.877 115.68 108.994 116.083 109.229 116.461C109.463 116.839 109.782 117.145 110.186 117.379C110.589 117.6 111.038 117.711 111.533 117.711C112.041 117.711 112.49 117.6 112.881 117.379C113.285 117.145 113.604 116.839 113.838 116.461C114.072 116.083 114.189 115.68 114.189 115.25C114.189 114.807 114.059 114.41 113.799 114.059C113.538 113.707 113.206 113.427 112.803 113.219C112.399 113.01 111.976 112.906 111.533 112.906ZM119.834 108.805C120.212 108.805 120.531 108.941 120.791 109.215C121.064 109.475 121.201 109.794 121.201 110.172C121.201 110.536 121.064 110.855 120.791 111.129C120.531 111.402 120.212 111.539 119.834 111.539C119.456 111.539 119.131 111.402 118.857 111.129C118.597 110.855 118.467 110.536 118.467 110.172C118.467 109.794 118.597 109.475 118.857 109.215C119.131 108.941 119.456 108.805 119.834 108.805ZM119.834 116.617C120.212 116.617 120.531 116.754 120.791 117.027C121.064 117.288 121.201 117.607 121.201 117.984C121.201 118.349 121.064 118.668 120.791 118.941C120.531 119.215 120.212 119.352 119.834 119.352C119.456 119.352 119.131 119.215 118.857 118.941C118.597 118.668 118.467 118.349 118.467 117.984C118.467 117.607 118.597 117.288 118.857 117.027C119.131 116.754 119.456 116.617 119.834 116.617ZM128.193 105.621C129.04 105.621 129.769 105.816 130.381 106.207C131.006 106.598 131.52 107.125 131.924 107.789C132.327 108.44 132.627 109.169 132.822 109.977C133.031 110.784 133.135 111.611 133.135 112.457C133.135 113.29 133.031 114.117 132.822 114.938C132.627 115.745 132.327 116.48 131.924 117.145C131.52 117.796 131.006 118.316 130.381 118.707C129.769 119.098 129.04 119.293 128.193 119.293C127.36 119.293 126.631 119.098 126.006 118.707C125.381 118.316 124.867 117.796 124.463 117.145C124.059 116.48 123.753 115.745 123.545 114.938C123.35 114.117 123.252 113.29 123.252 112.457C123.252 111.611 123.35 110.784 123.545 109.977C123.753 109.169 124.059 108.44 124.463 107.789C124.867 107.125 125.381 106.598 126.006 106.207C126.631 105.816 127.36 105.621 128.193 105.621ZM128.193 107.34C127.66 107.34 127.184 107.49 126.768 107.789C126.364 108.076 126.025 108.466 125.752 108.961C125.479 109.443 125.27 109.99 125.127 110.602C124.984 111.201 124.912 111.819 124.912 112.457C124.912 113.095 124.984 113.72 125.127 114.332C125.27 114.931 125.479 115.478 125.752 115.973C126.025 116.454 126.364 116.845 126.768 117.145C127.184 117.431 127.66 117.574 128.193 117.574C128.727 117.574 129.196 117.431 129.6 117.145C130.016 116.845 130.361 116.454 130.635 115.973C130.908 115.478 131.117 114.931 131.26 114.332C131.403 113.72 131.475 113.095 131.475 112.457C131.475 111.819 131.403 111.201 131.26 110.602C131.117 109.99 130.908 109.443 130.635 108.961C130.361 108.466 130.016 108.076 129.6 107.789C129.196 107.49 128.727 107.34 128.193 107.34ZM138.936 105.621C139.782 105.621 140.511 105.816 141.123 106.207C141.748 106.598 142.262 107.125 142.666 107.789C143.07 108.44 143.369 109.169 143.564 109.977C143.773 110.784 143.877 111.611 143.877 112.457C143.877 113.29 143.773 114.117 143.564 114.938C143.369 115.745 143.07 116.48 142.666 117.145C142.262 117.796 141.748 118.316 141.123 118.707C140.511 119.098 139.782 119.293 138.936 119.293C138.102 119.293 137.373 119.098 136.748 118.707C136.123 118.316 135.609 117.796 135.205 117.145C134.801 116.48 134.495 115.745 134.287 114.938C134.092 114.117 133.994 113.29 133.994 112.457C133.994 111.611 134.092 110.784 134.287 109.977C134.495 109.169 134.801 108.44 135.205 107.789C135.609 107.125 136.123 106.598 136.748 106.207C137.373 105.816 138.102 105.621 138.936 105.621ZM138.936 107.34C138.402 107.34 137.926 107.49 137.51 107.789C137.106 108.076 136.768 108.466 136.494 108.961C136.221 109.443 136.012 109.99 135.869 110.602C135.726 111.201 135.654 111.819 135.654 112.457C135.654 113.095 135.726 113.72 135.869 114.332C136.012 114.931 136.221 115.478 136.494 115.973C136.768 116.454 137.106 116.845 137.51 117.145C137.926 117.431 138.402 117.574 138.936 117.574C139.469 117.574 139.938 117.431 140.342 117.145C140.758 116.845 141.104 116.454 141.377 115.973C141.65 115.478 141.859 114.931 142.002 114.332C142.145 113.72 142.217 113.095 142.217 112.457C142.217 111.819 142.145 111.201 142.002 110.602C141.859 109.99 141.65 109.443 141.377 108.961C141.104 108.466 140.758 108.076 140.342 107.789C139.938 107.49 139.469 107.34 138.936 107.34ZM157.471 105.914C158.226 105.914 158.949 106.09 159.639 106.441C160.329 106.78 160.895 107.275 161.338 107.926C161.794 108.564 162.021 109.332 162.021 110.23C162.021 110.999 161.807 111.708 161.377 112.359C160.947 113.01 160.361 113.538 159.619 113.941C158.89 114.332 158.076 114.527 157.178 114.527C156.514 114.527 155.902 114.462 155.342 114.332C154.795 114.189 154.352 114.039 154.014 113.883V119H152.256V105.914H157.471ZM154.014 107.574V112.281C154.365 112.424 154.821 112.561 155.381 112.691C155.954 112.809 156.533 112.867 157.119 112.867C158.109 112.867 158.87 112.613 159.404 112.105C159.951 111.585 160.225 110.96 160.225 110.23C160.225 109.671 160.068 109.195 159.756 108.805C159.456 108.414 159.059 108.115 158.564 107.906C158.07 107.685 157.542 107.574 156.982 107.574H154.014ZM177.314 105.914V119H175.557V109.527L171.514 113.844H171.045L166.904 109.527V119H165.146V105.914H165.693L171.279 111.91L176.768 105.914H177.314Z" fill="#1F2937"/>
<path d="M86.2339 2.60571H87.0386V3.98594H86.2339V2.60571Z" fill="#0850FD"/>
<path d="M87.0385 1.22827H87.8398V2.60578H87.0385V1.22827Z" fill="#0850FD"/>
<path d="M87.8395 2.60571H88.6408V3.98594H87.8395V2.60571Z" fill="#0850FD"/>
<path d="M88.6423 1.22827H89.4409V2.60578H88.6423V1.22827Z" fill="#0850FD"/>
<path d="M89.4434 2.60571H90.2447V3.98594H89.4434V2.60571Z" fill="#0850FD"/>
<path d="M90.2444 1.22827H91.0457V2.60578H90.2444V1.22827Z" fill="#0850FD"/>
<path d="M91.0455 2.60571H91.8469V3.98594H91.0455V2.60571Z" fill="#0850FD"/>
<path d="M91.85 1.22827H92.6486V2.60578H91.85V1.22827Z" fill="#0850FD"/>
<path d="M92.6493 2.60571H93.4506V3.98594H92.6493V2.60571Z" fill="#0850FD"/>
<path d="M93.4539 1.22827H94.2552V2.60578H93.4539V1.22827Z" fill="#0850FD"/>
<path d="M94.255 2.60571H95.0563V3.98594H94.255V2.60571Z" fill="#0850FD"/>
<path d="M95.056 1.22827H95.8574V2.60578H95.056V1.22827Z" fill="#0850FD"/>
<path d="M95.8588 2.60571H96.6601V3.98594H95.8588V2.60571Z" fill="#0850FD"/>
<path d="M96.6564 1.22827H97.4611V2.60578H96.6564V1.22827Z" fill="#0850FD"/>
<path d="M97.4609 2.60571H98.2623V3.98594H97.4609V2.60571Z" fill="#0850FD"/>
<path d="M86.2339 5.36426H87.0386V6.74449H86.2339V5.36426Z" fill="#0850FD"/>
<path d="M87.0385 3.98682H87.8398V5.36705H87.0385V3.98682Z" fill="#0850FD"/>
<path d="M87.8395 5.36426H88.6408V6.74449H87.8395V5.36426Z" fill="#0850FD"/>
<path d="M88.6423 3.98682H89.4437V5.36705H88.6423V3.98682Z" fill="#0850FD"/>
<path d="M89.4434 5.36426H90.2447V6.74449H89.4434V5.36426Z" fill="#0850FD"/>
<path d="M90.2444 3.98682H91.0457V5.36705H90.2444V3.98682Z" fill="#0850FD"/>
<path d="M91.0455 5.36426H91.8469V6.74449H91.0455V5.36426Z" fill="#0850FD"/>
<path d="M91.8483 3.98682H92.6496V5.36705H91.8483V3.98682Z" fill="#0850FD"/>
<path d="M92.6493 5.36426H93.4506V6.74449H92.6493V5.36426Z" fill="#0850FD"/>
<path d="M93.4504 3.98682H94.2518V5.36705H93.4504V3.98682Z" fill="#0850FD"/>
<path d="M94.255 5.36426H95.0563V6.74449H94.255V5.36426Z" fill="#0850FD"/>
<path d="M95.056 3.98682H95.8574V5.36705H95.056V3.98682Z" fill="#0850FD"/>
<path d="M95.8588 5.36426H96.6601V6.74449H95.8588V5.36426Z" fill="#0850FD"/>
<path d="M96.6599 3.98682H97.4613V5.36705H96.6599V3.98682Z" fill="#0850FD"/>
<path d="M97.4609 5.36426H98.2623V6.74449H97.4609V5.36426Z" fill="#0850FD"/>
<path d="M86.2339 8.12207H87.0352V9.5023H86.2339V8.12207Z" fill="#0850FD"/>
<path d="M87.0385 6.74438H87.8398V8.12462H87.0385V6.74438Z" fill="#0850FD"/>
<path d="M87.8395 8.12207H88.6408V9.5023H87.8395V8.12207Z" fill="#0850FD"/>
<path d="M88.6423 6.74438H89.4437V8.12462H88.6423V6.74438Z" fill="#0850FD"/>
<path d="M89.4434 8.12207H90.2447V9.5023H89.4434V8.12207Z" fill="#0850FD"/>
<path d="M90.2444 6.74438H91.0457V8.12462H90.2444V6.74438Z" fill="#0850FD"/>
<path d="M91.0455 8.12207H91.8469V9.5023H91.0455V8.12207Z" fill="#0850FD"/>
<path d="M91.8483 6.74438H92.6496V8.12462H91.8483V6.74438Z" fill="#0850FD"/>
<path d="M92.6493 8.12207H93.4506V9.5023H92.6493V8.12207Z" fill="#0850FD"/>
<path d="M93.4504 6.74438H94.2518V8.12462H93.4504V6.74438Z" fill="#0850FD"/>
<path d="M94.255 8.12207H95.0563V9.5023H94.255V8.12207Z" fill="#0850FD"/>
<path d="M95.056 6.74438H95.8574V8.12462H95.056V6.74438Z" fill="#0850FD"/>
<path d="M95.8588 8.12207H96.6601V9.5023H95.8588V8.12207Z" fill="#0850FD"/>
<path d="M96.6599 6.74438H97.4613V8.12462H96.6599V6.74438Z" fill="#0850FD"/>
<path d="M97.4609 8.12207H98.2623V9.5023H97.4609V8.12207Z" fill="#0850FD"/>
<path d="M98.262 1.22827H99.0667V2.60578H98.262V1.22827Z" fill="#0850FD"/>
<path d="M99.0631 2.60571H99.8644V3.98594H99.0631V2.60571Z" fill="#0850FD"/>
<path d="M99.8658 1.22827H100.671V2.60578H99.8658V1.22827Z" fill="#0850FD"/>
<path d="M100.67 2.60571H101.472V3.98594H100.67V2.60571Z" fill="#0850FD"/>
<path d="M101.468 1.22827H102.273V2.60578H101.468V1.22827Z" fill="#0850FD"/>
<path d="M102.273 2.60571H103.074V3.98594H102.273V2.60571Z" fill="#0850FD"/>
<path d="M103.074 1.22827H103.878V2.60578H103.074V1.22827Z" fill="#0850FD"/>
<path d="M103.876 2.60571H104.678V3.98594H103.876V2.60571Z" fill="#0850FD"/>
<path d="M104.677 1.22827H105.482V2.60578H104.677V1.22827Z" fill="#0850FD"/>
<path d="M105.479 2.60571H106.28V3.98594H105.479V2.60571Z" fill="#0850FD"/>
<path d="M106.28 1.22827H107.084V2.60578H106.28V1.22827Z" fill="#0850FD"/>
<path d="M107.086 2.60571H107.887V3.98594H107.086V2.60571Z" fill="#0850FD"/>
<path d="M107.883 1.22827H108.688V2.60578H107.883V1.22827Z" fill="#0850FD"/>
<path d="M98.262 3.98682H99.0633V5.36705H98.262V3.98682Z" fill="#0850FD"/>
<path d="M99.0631 5.36426H99.8644V6.74449H99.0631V5.36426Z" fill="#0850FD"/>
<path d="M99.8658 3.98682H100.667V5.36705H99.8658V3.98682Z" fill="#0850FD"/>
<path d="M100.67 5.36426H101.472V6.74449H100.67V5.36426Z" fill="#0850FD"/>
<path d="M101.471 3.98682H102.273V5.36705H101.471V3.98682Z" fill="#0850FD"/>
<path d="M102.273 5.36426H103.074V6.74449H102.273V5.36426Z" fill="#0850FD"/>
<path d="M103.074 3.98682H103.875V5.36705H103.074V3.98682Z" fill="#0850FD"/>
<path d="M103.876 5.36426H104.678V6.74449H103.876V5.36426Z" fill="#0850FD"/>
<path d="M104.677 3.98682H105.479V5.36705H104.677V3.98682Z" fill="#0850FD"/>
<path d="M105.479 5.36426H106.28V6.74449H105.479V5.36426Z" fill="#0850FD"/>
<path d="M106.28 3.98682H107.081V5.36705H106.28V3.98682Z" fill="#0850FD"/>
<path d="M107.086 5.36426H107.887V6.74449H107.086V5.36426Z" fill="#0850FD"/>
<path d="M107.883 3.98682H108.688V5.36705H107.883V3.98682Z" fill="#0850FD"/>
<path d="M98.262 6.74438H99.0633V8.12462H98.262V6.74438Z" fill="#0850FD"/>
<path d="M99.0631 8.12207H99.8644V9.5023H99.0631V8.12207Z" fill="#0850FD"/>
<path d="M99.8658 6.74438H100.667V8.12462H99.8658V6.74438Z" fill="#0850FD"/>
<path d="M100.67 8.12207H101.472V9.5023H100.67V8.12207Z" fill="#0850FD"/>
<path d="M101.471 6.74438H102.273V8.12462H101.471V6.74438Z" fill="#0850FD"/>
<path d="M102.273 8.12207H103.074V9.5023H102.273V8.12207Z" fill="#0850FD"/>
<path d="M103.074 6.74438H103.875V8.12462H103.074V6.74438Z" fill="#0850FD"/>
<path d="M103.876 8.12207H104.678V9.5023H103.876V8.12207Z" fill="#0850FD"/>
<path d="M104.677 6.74438H105.479V8.12462H104.677V6.74438Z" fill="#0850FD"/>
<path d="M105.479 8.12207H106.28V9.5023H105.479V8.12207Z" fill="#0850FD"/>
<path d="M106.28 6.74438H107.081V8.12462H106.28V6.74438Z" fill="#0850FD"/>
<path d="M107.086 8.12207H107.887V9.5023H107.086V8.12207Z" fill="#0850FD"/>
<path d="M107.883 6.74438H108.688V8.1219H107.883V6.74438Z" fill="#0850FD"/>
<path d="M97.6194 52.0277C96.3391 52.0277 95.1113 51.5189 94.2058 50.6135C93.3004 49.7081 92.7922 48.4802 92.7922 47.1999C92.7922 45.9197 93.3004 44.6919 94.2058 43.7864C95.1112 42.8816 96.3391 42.3728 97.6194 42.3728C98.8996 42.3728 100.127 42.8816 101.033 43.7864C101.938 44.6918 102.446 45.9196 102.446 47.1999C102.445 48.4802 101.936 49.7067 101.031 50.6114C100.126 51.5168 98.899 52.0257 97.6194 52.0277L97.6194 52.0277ZM97.6194 45.1341C96.7833 45.1341 96.0303 45.6375 95.7106 46.4095C95.3909 47.1816 95.567 48.07 96.1582 48.6612C96.7493 49.2524 97.6377 49.4292 98.4099 49.1088C99.1819 48.7891 99.6853 48.0361 99.6853 47.2C99.684 46.0599 98.7595 45.1356 97.6195 45.1342L97.6194 45.1341Z" fill="#0850FD"/>
<path d="M103.279 17.0021H91.9762C91.2129 17.0021 90.5946 16.3844 90.5925 15.6212V9.04185C90.5946 8.27929 91.2129 7.66162 91.9762 7.66162H103.295C104.057 7.66162 104.676 8.27929 104.678 9.04185V15.6212C104.677 15.9906 104.529 16.3443 104.266 16.6035C104.004 16.8626 103.649 17.0062 103.279 17.0021H103.279ZM93.3414 14.241H101.899V10.4228H93.3414V14.241Z" fill="#0850FD"/>
<path d="M105.994 10.4229H89.2509C87.9271 10.4216 86.6577 9.89575 85.7217 8.95972C84.7857 8.0237 84.2598 6.75436 84.2592 5.43052V4.99516C84.2598 3.67071 84.7857 2.40129 85.7217 1.46526C86.6577 0.528562 87.927 0.00137574 89.2509 0H105.994C107.317 0.00136041 108.586 0.527865 109.522 1.46389C110.458 2.39991 110.984 3.66855 110.986 4.9917V5.42774C110.986 6.75219 110.46 8.02161 109.524 8.95815C108.588 9.8947 107.318 10.4214 105.994 10.4227L105.994 10.4229ZM89.2509 2.76408C88.0203 2.76748 87.0231 3.76473 87.0203 4.99521V5.43125V5.43057C87.0216 6.66182 88.0196 7.65979 89.2509 7.6617H105.994C107.225 7.65966 108.223 6.66173 108.225 5.43057V4.99521C108.221 3.76464 107.225 2.76739 105.994 2.76408L89.2509 2.76408Z" fill="#0850FD"/>
<path d="M122.954 29.7286C122.396 29.728 121.894 29.3919 121.68 28.8763C121.467 28.3613 121.585 27.7682 121.979 27.3729L123.762 25.5934H123.761C124.429 24.9002 124.682 23.9063 124.427 22.9784C124.171 22.0506 123.446 21.3261 122.518 21.0717C121.59 20.8166 120.596 21.0703 119.904 21.7383L118.127 23.5179C117.587 24.0574 116.712 24.0574 116.173 23.5179C115.634 22.9785 115.634 22.1037 116.173 21.5642L117.953 19.7846H117.953C118.982 18.7554 120.378 18.1772 121.833 18.1765C123.288 18.1765 124.684 18.754 125.713 19.7833C126.743 20.8118 127.321 22.2077 127.322 23.6634C127.322 25.1184 126.744 26.5143 125.715 27.5435L123.932 29.323V29.3237C123.673 29.5843 123.321 29.7298 122.954 29.7285L122.954 29.7286Z" fill="#0850FD"/>
<path d="M97.9729 33.7877C97.2104 33.7877 96.592 33.1694 96.592 32.4068V28.2716C96.592 27.509 97.2104 26.8914 97.9729 26.8914C98.7348 26.8914 99.3532 27.509 99.3532 28.2716V32.4068C99.3532 32.7735 99.2076 33.1245 98.9491 33.383C98.6899 33.6422 98.3389 33.7877 97.9729 33.7877Z" fill="#0850FD"/>
<path d="M108.38 38.2478C107.822 38.2471 107.319 37.9104 107.106 37.3954C106.893 36.8798 107.01 36.2866 107.404 35.8921L110.33 32.9663C110.587 32.6983 110.94 32.5452 111.312 32.5411C111.683 32.5364 112.04 32.6819 112.303 32.9445C112.565 33.2064 112.711 33.5635 112.708 33.9343C112.704 34.3057 112.551 34.6594 112.284 34.9166L109.358 37.8423C109.099 38.1029 108.747 38.2491 108.38 38.2478H108.38Z" fill="#0850FD"/>
<path d="M116.728 48.7607H112.586C111.824 48.7607 111.206 48.1423 111.206 47.3804C111.206 46.6179 111.824 45.9995 112.586 45.9995H116.728C117.49 45.9995 118.109 46.6179 118.109 47.3804C118.109 48.1423 117.49 48.7607 116.728 48.7607Z" fill="#0850FD"/>
<path d="M111.056 62.0879C110.69 62.0893 110.339 61.943 110.082 61.6825L107.156 58.7602C106.616 58.2207 106.616 57.3459 107.156 56.8064C107.695 56.267 108.57 56.267 109.11 56.8064L112.032 59.7322C112.291 59.9907 112.437 60.3417 112.437 60.7077C112.437 61.0737 112.291 61.424 112.032 61.6825C111.775 61.9437 111.423 62.09 111.056 62.0879L111.056 62.0879Z" fill="#0850FD"/>
<path d="M97.6195 67.5091C96.8603 67.5057 96.2454 66.8908 96.2419 66.1316V61.9903C96.2419 61.2277 96.8603 60.6094 97.6222 60.6094C98.3847 60.6094 99.0031 61.2277 99.0031 61.9903V66.1316C98.9997 66.8935 98.3813 67.5091 97.6195 67.5091V67.5091Z" fill="#0850FD"/>
<path d="M123.097 47.2003C123.089 40.4454 120.403 33.9694 115.626 29.1938C110.85 24.417 104.374 21.7309 97.6198 21.7234H68.5256C67.7637 21.7234 67.1453 22.3417 67.1453 23.1043C67.1453 23.8669 67.7637 24.4845 68.5256 24.4845H97.6198C103.69 24.4145 109.535 26.7763 113.853 31.0442C118.169 35.3114 120.599 41.1289 120.599 47.1995C120.599 53.2702 118.169 59.0876 113.853 63.3548C109.535 67.6228 103.69 69.9845 97.6198 69.9145H68.5256C67.7637 69.9145 67.1453 70.5322 67.1453 71.2947C67.1453 72.0573 67.7637 72.6756 68.5256 72.6756H97.6198C104.374 72.6682 110.849 69.9818 115.626 65.2064C120.402 60.4304 123.089 53.9552 123.097 47.2017L123.097 47.2003Z" fill="#0850FD"/>
<path d="M97.6194 14.4003H83.1866C82.424 14.4003 81.8057 15.0186 81.8057 15.7805C81.8057 16.5431 82.424 17.1614 83.1866 17.1614H97.6194C105.533 17.241 113.096 20.4409 118.665 26.0652C124.233 31.6902 127.357 39.2845 127.357 47.1993C127.357 55.1142 124.233 62.7084 118.665 68.3334C113.097 73.9577 105.534 77.1576 97.6194 77.2372C96.8569 77.2372 96.2392 77.8556 96.2392 78.6181C96.2392 79.38 96.8569 79.9984 97.6194 79.9984C103.413 80.0541 109.117 78.5746 114.153 75.7101C119.189 72.8456 123.376 68.6987 126.289 63.6907C129.201 58.6826 130.736 52.993 130.736 47.1994C130.736 41.4058 129.201 35.7162 126.289 30.7082C123.376 25.7001 119.189 21.5534 114.153 18.6887C109.117 15.8242 103.412 14.3447 97.6194 14.4004V14.4003Z" fill="#0850FD"/>
<path d="M82.5769 47.0018C82.5769 46.2392 81.9585 45.6216 81.196 45.6216H50.6441C49.8816 45.6216 49.2639 46.2392 49.2639 47.0018C49.2639 47.7644 49.8816 48.382 50.6441 48.382H81.196C81.9585 48.382 82.5769 47.7644 82.5769 47.0018Z" fill="#0850FD"/>
<path d="M56.5093 36.4331H84.1285C84.8911 36.4331 85.5087 35.8154 85.5087 35.0528C85.5087 34.2903 84.8911 33.6726 84.1285 33.6726H56.5093C55.7467 33.6726 55.1284 34.2903 55.1284 35.0528C55.1284 35.8154 55.7467 36.4331 56.5093 36.4331Z" fill="#0850FD"/>
<path d="M85.5077 59.1465C85.5077 58.384 84.89 57.7656 84.1274 57.7656H56.5082C55.7701 57.8003 55.1892 58.4091 55.1892 59.1479C55.1892 59.8866 55.7701 60.4955 56.5082 60.5302H84.1274C84.8907 60.5281 85.5077 59.9091 85.5077 59.1465Z" fill="#0850FD"/>
<path d="M100.057 46.1433C99.4914 46.144 98.9826 45.7998 98.7731 45.274C98.5636 44.7488 98.6956 44.1488 99.1064 43.7597L103.61 39.4932H103.611C104.165 38.9694 105.038 38.9932 105.563 39.5469C106.087 40.1007 106.063 40.9741 105.51 41.4986L101.006 45.7651H101.005C100.75 46.0086 100.41 46.144 100.057 46.1433V46.1433Z" fill="#0850FD"/>
<path d="M93.1665 10.0049H103.281V14.6918H93.1665V10.0049Z" fill="#0850FD"/>
</svg>
