<svg width="64" height="80" viewBox="0 0 64 80" fill="none" xmlns="http://www.w3.org/2000/svg">
<path d="M21.9738 71.0014L24.4985 75.5677C25.4893 77.366 27.0923 78.7488 29.0169 79.4638C30.9416 80.1787 33.0584 80.1787 34.9833 79.4638C36.9081 78.7488 38.511 77.366 39.5017 75.5677L42.4682 70.2028V70.2021C46.2742 63.7277 50.7365 57.6625 55.7841 52.1011C61.073 46.0021 63.8161 38.104 63.4466 30.0403C63.0776 21.9756 59.6239 14.3611 53.8007 8.77045C47.9768 3.1795 40.2281 0.0399279 32.155 0.000378866C24.0821 -0.0392012 16.3028 3.02375 10.4243 8.55718C4.54608 14.09 1.01772 21.6701 0.568953 29.7306C0.120807 37.7907 2.78533 45.7156 8.01381 51.8666C13.2786 57.7754 17.954 64.1841 21.9733 71.0021L21.9738 71.0014ZM6.83273 25.9777C7.85605 21.154 10.2462 16.7275 13.7177 13.2261C17.1885 9.72451 21.5946 7.29617 26.4093 6.23129C28.2274 5.84762 30.0807 5.6542 31.939 5.65355C38.5679 5.66057 44.9403 8.21606 49.7377 12.7907C54.5345 17.3659 57.3886 23.6099 57.7097 30.2298C58.0308 36.8512 55.7939 43.3414 51.462 48.3586C46.1487 54.2158 41.4572 60.6085 37.4642 67.4336L34.4977 72.8018C34.169 73.4007 33.6353 73.8616 32.9944 74.1003C32.3534 74.3384 31.6486 74.3384 31.0078 74.1003C30.3668 73.8616 29.8331 73.4007 29.5044 72.8018L26.9796 68.233V68.2323C22.7815 61.0811 17.891 54.3603 12.3779 48.1653C7.19416 42.0261 5.14628 33.8317 6.83348 25.9754L6.83273 25.9777Z" fill="#0850FD"/>
<path d="M31.9999 45.6803C35.7926 45.6803 39.4294 44.1737 42.1112 41.4919C44.7931 38.81 46.2997 35.1732 46.2997 31.3805C46.2997 27.5879 44.7931 23.9511 42.1112 21.2692C39.4294 18.5874 35.7926 17.0808 31.9999 17.0808C28.2073 17.0808 24.5704 18.5874 21.8886 21.2692C19.2068 23.9511 17.7002 27.5879 17.7002 31.3805C17.704 35.1719 19.2119 38.8068 21.893 41.4874C24.5735 44.1686 28.2086 45.6765 31.9999 45.6803ZM31.9999 22.8007C34.2758 22.8007 36.4577 23.7046 38.0671 25.3134C39.6758 26.9227 40.5798 29.1047 40.5798 31.3805C40.5798 33.6564 39.6758 35.8383 38.0671 37.4477C36.4577 39.0565 34.2758 39.9604 31.9999 39.9604C29.7241 39.9604 27.5422 39.0565 25.9328 37.4477C24.324 35.8384 23.4201 33.6564 23.4201 31.3805C23.4226 29.106 24.3272 26.9252 25.936 25.3166C27.5448 23.708 29.7255 22.8033 31.9999 22.8007Z" fill="#0850FD"/>
</svg>
