<svg width="89" height="80" viewBox="0 0 89 80" fill="none" xmlns="http://www.w3.org/2000/svg">
<path d="M56.4114 7.74213H69.3148V2.58085C69.3148 1.15507 70.4699 0 71.895 0C73.3203 0 74.4759 1.15513 74.4759 2.58085V7.74213H80.9273C85.203 7.74213 88.6694 11.2081 88.6694 15.4837V72.2579C88.6694 76.5342 85.2029 80 80.9273 80H8.67029C4.39458 80 0.928162 76.534 0.928162 72.2579V15.4837C0.928162 11.208 4.39473 7.74213 8.67029 7.74213H15.1217V2.58085C15.1217 1.15507 16.2774 0 17.7026 0C19.1278 0 20.2828 1.15513 20.2828 2.58085V7.74213H33.1862V2.58085C33.1862 1.15507 34.3414 0 35.7665 0C37.1918 0 38.3474 1.15513 38.3474 2.58085V7.74213H51.2502V2.58085C51.2502 1.15507 52.4059 0 53.8311 0C55.2563 0 56.4114 1.15513 56.4114 2.58085V7.74213ZM56.4114 12.9034V18.0647C56.4114 19.4899 55.2562 20.645 53.8311 20.645C52.4058 20.645 51.2502 19.4898 51.2502 18.0647V12.9034H38.3474V18.0647C38.3474 19.4899 37.1917 20.645 35.7665 20.645C34.3413 20.645 33.1862 19.4898 33.1862 18.0647V12.9034H20.2828V18.0647C20.2828 19.4899 19.1277 20.645 17.7026 20.645C16.2773 20.645 15.1217 19.4898 15.1217 18.0647V12.9034H8.67029C7.24506 12.9034 6.08944 14.0585 6.08944 15.4837V72.2579C6.08944 73.6837 7.24512 74.8387 8.67029 74.8387H80.9273C82.3525 74.8387 83.5082 73.6836 83.5082 72.2579V15.4837C83.5082 14.0585 82.3525 12.9034 80.9273 12.9034H74.4759V18.0647C74.4759 19.4899 73.3202 20.645 71.895 20.645C70.4698 20.645 69.3148 19.4898 69.3148 18.0647V12.9034H56.4114ZM16.4114 24.5161H57.7028C60.5532 24.5161 62.8641 26.827 62.8641 29.6774V39.9999C62.8641 42.8504 60.5532 45.1612 57.7028 45.1612H16.4114C13.561 45.1612 11.2501 42.8504 11.2501 39.9999V29.6774C11.2501 26.827 13.561 24.5161 16.4114 24.5161V24.5161ZM16.4114 29.6774V39.9999H57.7028V29.6774H16.4114Z" fill="#0850FD"/>
</svg>
