<svg width="80" height="80" viewBox="0 0 80 80" fill="none" xmlns="http://www.w3.org/2000/svg">
<path d="M71.9772 39.4502H15.3747V36.9858C15.3747 36.4589 14.9467 36.0319 14.4185 36.0319C13.8909 36.0319 13.4624 36.4589 13.4624 36.9858V39.4502H8.02359C7.49541 39.4502 7.06741 39.8772 7.06741 40.4042C7.06741 40.9311 7.49541 41.3581 8.02359 41.3581H13.4624V43.8225C13.4624 44.3494 13.8909 44.7764 14.4185 44.7764C14.9467 44.7764 15.3747 44.3494 15.3747 43.8225V41.3581H71.9772C72.5053 41.3581 72.9333 40.9311 72.9333 40.4042C72.9333 39.8772 72.5053 39.4502 71.9772 39.4502Z" fill="#0850FD"/>
<path d="M34.8624 31.4595C35.2784 31.6986 35.7907 31.6986 36.2067 31.4595L40.127 29.2018C40.5846 28.9384 40.7411 28.3552 40.477 27.8987C40.2135 27.4427 39.6284 27.286 39.1708 27.5495L36.102 29.3171V15.8465L47.7947 22.5815L46.4919 23.3322H46.4924C46.271 23.4577 46.1088 23.6661 46.0422 23.9114C45.9751 24.1567 46.0092 24.4184 46.1367 24.6382C46.2642 24.8585 46.4742 25.0186 46.7207 25.0834C46.9665 25.1487 47.2289 25.1129 47.4486 24.9846L49.6034 23.7438L49.6028 23.7433C50.0189 23.5037 50.275 23.0607 50.275 22.5815C50.275 22.1022 50.0189 21.6593 49.6028 21.4197L36.2073 13.7035C35.7912 13.4639 35.279 13.4639 34.8629 13.7035C34.4469 13.9431 34.1908 14.386 34.1908 14.8653V30.2972C34.1913 30.7764 34.4469 31.2187 34.8624 31.4589L34.8624 31.4595Z" fill="#0850FD"/>
<path d="M43.6803 24.9515L42.3474 25.7192C42.1282 25.8459 41.9677 26.0543 41.9023 26.2984C41.8362 26.5432 41.871 26.8032 41.9973 27.0224C42.2614 27.4789 42.8465 27.6351 43.3035 27.3716L44.6365 26.6039C45.0901 26.3387 45.2437 25.7584 44.9808 25.3042C44.7184 24.8499 44.1373 24.6926 43.6803 24.9515H43.6803Z" fill="#0850FD"/>
<path d="M75.1608 0H4.83896C3.5561 0.00170353 2.32618 0.510477 1.41889 1.4156C0.511663 2.32073 0.00170472 3.54781 0 4.82833V49.4596C0.00113823 50.7389 0.510527 51.9654 1.41662 52.87C2.32271 53.7751 3.55145 54.285 4.83378 54.2873H5.13942V59.0207C5.13942 61.6009 6.51905 63.9852 8.75867 65.2753C10.9983 66.5654 13.758 66.5654 15.9977 65.2753C18.2375 63.9852 19.6176 61.6009 19.6176 59.0207V54.2873H32.2674V59.0207H32.2669C32.2669 61.6009 33.6471 63.9852 35.8867 65.2753C38.1263 66.5654 40.886 66.5654 43.1258 65.2753C45.3655 63.9852 46.745 61.6009 46.745 59.0207V54.2873H58.4069V58.2372C58.4052 60.8066 59.7712 63.1829 61.9954 64.4788C64.2191 65.7746 66.9652 65.7939 69.2071 64.5294C71.449 63.2648 72.8485 60.9077 72.8827 58.3389C74.0387 58.2616 75.1241 57.7568 75.9254 56.9221C76.7268 56.088 77.1867 54.9847 77.2146 53.8292C78.0466 53.4397 78.7501 52.8219 79.2436 52.0485C79.7365 51.2745 79.9989 50.3768 80 49.4597V4.82841C79.9983 3.54795 79.4883 2.32087 78.5811 1.41569C77.6739 0.510558 76.4439 0.00178221 75.161 8.14454e-05L75.1608 0ZM17.7045 59.0209C17.7045 60.9197 16.6891 62.6744 15.0409 63.6232C13.3932 64.5726 11.3625 64.5726 9.71475 63.6232C8.06656 62.6743 7.05116 60.9197 7.05116 59.0209V56.376H8.00563C9.02725 56.3749 10.0067 55.9694 10.729 55.2489C11.4512 54.5283 11.8576 53.551 11.8587 52.5319C11.8593 52.328 12.0249 52.1628 12.2287 52.1628H15.1239C15.2503 52.8226 15.5588 53.4341 16.0146 53.9282C16.4705 54.4222 17.0556 54.7788 17.7045 54.9588L17.7045 59.0209ZM12.2287 50.2547C11.6237 50.2553 11.0437 50.4955 10.6158 50.9225C10.1878 51.3495 9.9476 51.9281 9.94645 52.5317C9.94531 53.6009 9.07736 54.4668 8.00569 54.4679H7.05122V53.0665C7.05236 51.6572 7.61411 50.3063 8.613 49.3103C9.6113 48.3138 10.9654 47.7533 12.378 47.7521C12.7371 47.7521 13.3819 47.885 14.1491 48.1178H14.1485C14.7547 48.3018 15.3842 48.3961 16.017 48.3966C16.597 48.3972 17.1627 48.5761 17.6368 48.9082C18.1115 49.2404 18.4717 49.7106 18.6692 50.2546L12.2287 50.2547ZM17.7045 52.882C17.4432 52.702 17.2378 52.4528 17.1114 52.1626H17.7045V52.882ZM44.8328 59.0208C44.8328 60.9195 43.8174 62.6742 42.1692 63.623C40.521 64.5724 38.4908 64.5724 36.8425 63.623C35.1943 62.6742 34.1795 60.9195 34.1795 59.0208V52.9405L37.4527 52.4834C38.2592 52.3709 39.0793 52.5521 39.7634 52.9933C41.1697 53.8967 42.9193 54.088 44.4885 53.5106L44.8328 53.3834L44.8328 59.0208ZM34.1795 51.0138V47.7511L39.5056 47.7517C40.6337 47.7534 41.7315 48.1111 42.6428 48.7743C43.554 49.4376 44.2312 50.3716 44.5772 51.4425L43.8225 51.7219C42.8197 52.091 41.7008 51.9683 40.8021 51.3914C39.7321 50.7009 38.4493 50.4181 37.1874 50.5942L34.1795 51.0138ZM70.9722 58.2371V58.2377C70.9722 60.136 69.9569 61.8905 68.3087 62.8399C66.6605 63.7888 64.6303 63.7888 62.9819 62.8399C61.3337 61.8905 60.3189 60.1358 60.3189 58.2377V56.2139H60.731C63.3685 56.2065 65.9261 55.3139 67.9939 53.6802C68.6456 54.8675 69.6638 56.0549 70.9723 56.2655L70.9722 58.2371ZM70.9722 54.2673C70.1259 53.8307 69.4093 52.2856 69.2301 51.7854C69.1202 51.4759 68.859 51.2448 68.538 51.1727C68.217 51.1012 67.8818 51.1988 67.6501 51.4316C65.8157 53.2651 63.3274 54.2992 60.731 54.3059H60.3189V53.8494C60.3189 51.9506 61.3337 50.1965 62.9819 49.2472C64.6301 48.2978 66.6603 48.2978 68.3087 49.2472C69.957 50.1966 70.9723 51.9506 70.9723 53.8494L70.9722 54.2673ZM72.8846 56.4234V53.8494C72.8852 52.8716 72.686 51.904 72.2984 51.0058H72.579C73.5158 51.0058 74.3871 51.4862 74.8851 52.2777C75.3837 53.0687 75.4395 54.0602 75.0331 54.9023C74.6267 55.7444 73.8151 56.319 72.8846 56.4241V56.4234ZM78.0866 49.4596C78.0866 50.4186 77.6131 51.3159 76.8214 51.8592C76.4583 51.0382 75.8641 50.3403 75.1111 49.8503C74.3576 49.3603 73.4782 49.0985 72.579 49.0974H71.0906C69.9039 47.7414 68.2517 46.8766 66.4589 46.6733C64.6654 46.47 62.8613 46.9424 61.3997 47.998C59.9375 49.0536 58.9245 50.6169 58.5579 52.3794H46.7105C46.5375 50.5919 45.7037 48.9327 44.3719 47.7244C43.0401 46.5167 41.3053 45.846 39.5051 45.8437H33.2223C32.6941 45.8437 32.2661 46.2707 32.2661 46.7977V52.38H19.6168V52.1625H19.7921C20.3203 52.1625 20.7483 51.7355 20.7483 51.2085C20.7466 49.957 20.248 48.7572 19.3613 47.8725C18.474 46.9873 17.2713 46.4899 16.017 46.4882C15.5724 46.4876 15.1297 46.4212 14.7039 46.2917C13.7233 45.9947 12.9406 45.8443 12.3772 45.8443C10.5775 45.8465 8.84276 46.5166 7.51046 47.725C6.17865 48.9333 5.34547 50.5926 5.17238 52.38H4.83828C4.06253 52.3794 3.3186 52.0711 2.77004 51.5237C2.22147 50.9763 1.91233 50.2342 1.91176 49.4597V4.8284C1.9129 4.05388 2.22138 3.31167 2.77004 2.76437C3.31869 2.21707 4.06258 1.90922 4.83828 1.90808H75.1601C75.9358 1.90922 76.6797 2.21698 77.2283 2.76437C77.7769 3.31175 78.0854 4.05391 78.0866 4.8284L78.0866 49.4596Z" fill="#0850FD"/>
<path d="M43.3641 67.1552H35.6476C34.1267 67.1569 32.6687 67.7605 31.593 68.8337C30.5173 69.9064 29.9129 71.3618 29.9106 72.8789V79.0331C29.9106 79.56 30.3391 79.9871 30.8667 79.9871H48.1456C48.6737 79.9871 49.1017 79.56 49.1017 79.0331V72.8789C49.1 71.3616 48.495 69.9064 47.4193 68.8337C46.3436 67.7605 44.8854 67.157 43.3647 67.1552H43.3641ZM47.1888 78.0791H31.823V72.8789C31.8248 71.8671 32.2277 70.8972 32.9448 70.1823C33.662 69.4668 34.6341 69.0642 35.6478 69.0631H43.3643C44.3779 69.0642 45.3507 69.4668 46.0672 70.1817C46.7844 70.8972 47.1879 71.8671 47.189 72.879L47.1888 78.0791Z" fill="#0850FD"/>
<path d="M44.3709 72.2968H42.6476C42.1194 72.2968 41.6914 72.7243 41.6914 73.2507C41.6914 73.7777 42.1194 74.2047 42.6476 74.2047H44.3709C44.8991 74.2047 45.3271 73.7777 45.3271 73.2507C45.3271 72.7243 44.8991 72.2968 44.3709 72.2968Z" fill="#0850FD"/>
<path d="M16.2358 67.1552H8.51983C6.99856 67.1569 5.54037 67.7605 4.46523 68.8337C3.38954 69.9064 2.78455 71.3618 2.78281 72.8789V79.0331C2.78281 79.56 3.21081 79.9871 3.73898 79.9871H21.0164C21.5445 79.9871 21.9725 79.56 21.9725 79.0331V72.8789C21.9708 71.3616 21.3658 69.9064 20.2907 68.8337C19.215 67.7605 17.7568 67.157 16.2355 67.1552H16.2358ZM20.0605 78.0791H4.69471V72.8789C4.69585 71.8671 5.09937 70.8972 5.81594 70.1817C6.53307 69.4668 7.50521 69.0642 8.51944 69.0631H16.2354C17.2496 69.0642 18.2218 69.4668 18.9389 70.1823C19.656 70.8972 20.059 71.867 20.0601 72.8789L20.0605 78.0791Z" fill="#0850FD"/>
<path d="M17.2426 72.2968H15.5192C14.9911 72.2968 14.5631 72.7243 14.5631 73.2507C14.5631 73.7777 14.9911 74.2047 15.5192 74.2047H17.2426C17.7708 74.2047 18.1988 73.7777 18.1988 73.2507C18.1988 72.7243 17.7708 72.2968 17.2426 72.2968Z" fill="#0850FD"/>
<path d="M69.5046 66.3732H61.7886C60.2674 66.3749 58.8092 66.9785 57.734 68.0517C56.6583 69.1243 56.0534 70.5797 56.0516 72.0969V79.046C56.0516 79.573 56.4796 80 57.0078 80H74.2852C74.8133 80 75.2413 79.573 75.2413 79.046V72.0969C75.2396 70.5796 74.6346 69.1243 73.5589 68.0517C72.4838 66.9785 71.0256 66.3749 69.5043 66.3732H69.5046ZM73.3293 78.092H57.9635V72.0969C57.9647 71.085 58.3682 70.1151 59.0847 69.3997C59.8019 68.6848 60.774 68.2822 61.7882 68.281H69.5042C70.5184 68.2822 71.4906 68.6848 72.2077 69.3997C72.9248 70.1151 73.3278 71.085 73.3289 72.0969L73.3293 78.092Z" fill="#0850FD"/>
<path d="M70.5114 71.5147H68.7874C68.2593 71.5147 67.8313 71.9417 67.8313 72.4687C67.8313 72.995 68.2593 73.4226 68.7874 73.4226H70.5114C71.0396 73.4226 71.4676 72.995 71.4676 72.4687C71.4676 71.9417 71.0396 71.5147 70.5114 71.5147Z" fill="#0850FD"/>
</svg>
